<?xml version="1.0" standalone="no"?>
<!DOCTYPE svg PUBLIC "-//W3C//DTD SVG 1.1//EN" "http://www.w3.org/Graphics/SVG/1.1/DTD/svg11.dtd" >
<svg xmlns="http://www.w3.org/2000/svg">
<metadata></metadata>
<defs>
<font id="morebi_roundedmedium" horiz-adv-x="1228" >
<font-face units-per-em="2048" ascent="1583" descent="-465" />
<missing-glyph horiz-adv-x="512" />
<glyph unicode="&#xfb01;" horiz-adv-x="1232" d="M164 70v954q0 123 22.5 213t96.5 160q125 113 327 112q70 0 148 -11t129 -32q55 -23 55 -77q0 -16 -6 -35q-20 -53 -82 -54q-20 0 -41 7q-39 10 -85 21t-124 11q-63 0 -110.5 -17t-75.5 -46q-31 -29 -46.5 -74t-19.5 -125h584q66 0 100.5 -39t34.5 -88v-880 q0 -35 -27.5 -56.5t-66.5 -21.5t-66.5 21.5t-27.5 56.5v837h-531v-837q0 -35 -27.5 -56.5t-66.5 -21.5t-66.5 21.5t-27.5 56.5z" />
<glyph unicode="&#xfb02;" horiz-adv-x="1286" d="M164 70v954q0 123 22.5 213t96.5 160q125 113 327 112q82 0 167 -8t184 -31q59 -14 87.5 -55t28.5 -94v-965q0 -43 5 -72.5t17.5 -53t32 -44.5t48.5 -41q35 -25 34 -63q0 -27 -20 -53q-27 -37 -70 -37q-16 0 -30.5 5t-28.5 13q-96 68 -136 147t-40 199v955 q-51 10 -126 20t-159 10q-63 0 -110.5 -18t-75.5 -47q-31 -29 -46.5 -74t-19.5 -125h342q39 0 62.5 -25.5t23.5 -60.5t-23.5 -59.5t-62.5 -24.5h-342v-837q0 -35 -27.5 -56.5t-66.5 -21.5t-66.5 21.5t-27.5 56.5z" />
<glyph unicode="&#xfb03;" horiz-adv-x="1951" d="M164 70v954q0 123 22.5 213t96.5 160q125 113 329 112q59 0 108.5 -7t92.5 -23q55 -25 55 -78q0 -18 -6 -37q-20 -53 -80 -53q-23 0 -43 6q-80 23 -143 22q-59 0 -104.5 -17t-73.5 -46q-31 -29 -46.5 -74t-19.5 -125h531q4 102 28.5 180t89.5 140q61 55 142.5 83.5 t185.5 28.5q70 0 147.5 -11t129.5 -32q55 -23 55 -77q0 -16 -6 -35q-20 -53 -84 -54q-18 0 -39 7q-39 10 -85 21t-124 11q-66 0 -112 -17t-74 -46q-31 -29 -46.5 -74t-19.5 -125h584q66 0 100.5 -39t34.5 -88v-880q0 -35 -27.5 -56.5t-66.5 -21.5q-41 0 -67.5 21.5 t-26.5 56.5v837h-531v-837q0 -35 -27.5 -56.5t-66.5 -21.5t-66.5 21.5t-27.5 56.5v837h-531v-837q0 -35 -27.5 -56.5t-66.5 -21.5t-66.5 21.5t-27.5 56.5z" />
<glyph unicode="&#xfb04;" horiz-adv-x="2004" d="M164 70v954q0 123 22.5 213t96.5 160q125 113 329 112q59 0 108.5 -7t92.5 -23q55 -25 55 -78q0 -18 -6 -37q-20 -53 -80 -53q-23 0 -43 6q-80 23 -143 22q-59 0 -104.5 -17t-73.5 -46q-31 -29 -46.5 -74t-19.5 -125h531q4 102 28.5 180t89.5 140q61 55 142.5 83.5 t185.5 28.5q82 0 167 -8t183 -31q59 -14 88 -55t29 -94v-965q0 -43 5 -72.5t17.5 -53t31.5 -44.5t48 -41q35 -25 35 -63q0 -27 -20 -53q-27 -37 -70 -37q-16 0 -30.5 5t-28.5 13q-96 68 -136 147t-40 199v955q-51 10 -126 20t-159 10q-66 0 -112 -18t-74 -47 q-31 -29 -46.5 -74t-19.5 -125h342q39 0 62.5 -25.5t23.5 -60.5t-23.5 -59.5t-62.5 -24.5h-342v-837q0 -35 -27.5 -56.5t-66.5 -21.5t-66.5 21.5t-27.5 56.5v837h-531v-837q0 -35 -27.5 -56.5t-66.5 -21.5t-66.5 21.5t-27.5 56.5z" />
<glyph horiz-adv-x="0" />
<glyph unicode="&#xd;" horiz-adv-x="0" />
<glyph horiz-adv-x="245" />
<glyph horiz-adv-x="245" />
<glyph unicode=" "  horiz-adv-x="512" />
<glyph unicode="&#x09;" horiz-adv-x="512" />
<glyph unicode="&#xa0;" horiz-adv-x="512" />
<glyph unicode="!" horiz-adv-x="520" d="M164 68v49q0 41 29.5 61.5t66.5 20.5t66.5 -20.5t29.5 -61.5v-49q0 -41 -29.5 -61.5t-66.5 -20.5t-66.5 20.5t-29.5 61.5zM164 438v932q0 41 29.5 61.5t66.5 20.5t66.5 -20.5t29.5 -61.5v-932q0 -37 -30.5 -59.5t-65.5 -22.5t-65.5 22.5t-30.5 59.5z" />
<glyph unicode="&#x22;" horiz-adv-x="512" d="M61 1071v367q0 29 21.5 50t50.5 21t50.5 -21.5t21.5 -49.5v-367q0 -29 -21.5 -50.5t-50.5 -21.5t-50.5 21.5t-21.5 50.5zM307 1071v367q0 29 20.5 50t51.5 21q29 0 50.5 -21.5t21.5 -49.5v-367q0 -29 -21.5 -50.5t-50.5 -21.5q-31 0 -51.5 21.5t-20.5 50.5z" />
<glyph unicode="#" horiz-adv-x="1241" d="M61 436q0 35 24 60.5t62 25.5h138l75 393h-100q-41 0 -63.5 26t-22.5 60q0 35 22.5 60.5t63.5 25.5h135l56 287q12 70 94 70q41 0 67.5 -20.5t26.5 -59.5q0 -12 -2 -21l-51 -256h213l57 287q12 70 92 70q41 0 67.5 -20.5t26.5 -59.5q0 -12 -2 -21l-49 -256h103 q39 0 62.5 -25.5t23.5 -60.5t-23.5 -60.5t-62.5 -25.5h-138l-77 -393h102q39 0 62.5 -25.5t23.5 -60.5q0 -37 -23.5 -61.5t-62.5 -24.5h-135l-58 -287q-6 -33 -29.5 -52t-62.5 -19q-41 0 -67.5 21.5t-26.5 60.5q0 12 2 20l49 256h-213l-55 -287q-6 -33 -29.5 -52t-62.5 -19 q-41 0 -68.5 21.5t-27.5 60.5q0 4 4 20l49 256h-103q-39 0 -62.5 24.5t-23.5 61.5zM475 522h213l78 393h-213z" />
<glyph unicode="$" horiz-adv-x="1148" d="M123 201q0 8 4 24q6 27 27.5 43.5t54.5 16.5q18 0 37 -6q39 -10 70.5 -18.5t61.5 -14.5t61.5 -9.5t68.5 -5.5v435q-170 43 -260 118q-119 94 -119 242q0 59 20.5 117.5t64.5 106.5t116.5 82t177.5 42v78q0 27 18.5 42t42.5 15q27 0 44.5 -15t17.5 -42v-76q139 -6 262 -45 q33 -10 48 -31.5t15 -48.5q0 -8 -1 -14t-3 -14q-10 -31 -32.5 -45.5t-51.5 -14.5q-18 0 -37 6q-66 18 -113.5 25.5t-86.5 9.5v-391q47 -10 114.5 -32.5t130 -64.5t106.5 -107.5t44 -162.5q0 -82 -34 -153.5t-97 -124.5q-104 -86 -264 -105v-77q0 -27 -17.5 -42.5 t-44.5 -15.5q-25 0 -43 15.5t-18 42.5v73q-117 4 -189.5 21.5t-134.5 36.5q-29 10 -45 32.5t-16 51.5zM317 1026q0 -14 3.5 -35.5t20.5 -46t56 -50.5t111 -48v356q-191 -22 -191 -176zM631 238q98 16 152.5 69t54.5 139q0 25 -7.5 50.5t-29 49t-62.5 46t-108 43.5v-397z" />
<glyph unicode="%" horiz-adv-x="1681" d="M133 1098q0 37 2 69.5t8 67.5q6 41 26.5 80t56.5 69.5t88.5 49t119.5 18.5q68 0 120 -18.5t88 -49t56.5 -69.5t26.5 -80q4 -35 7 -67.5t3 -69.5q0 -35 -3 -69t-7 -66q-6 -41 -26.5 -80t-56.5 -70t-88 -50.5t-120 -19.5t-120 19.5t-88 50.5t-56 70t-27 80q-6 33 -8 66.5 t-2 68.5zM287 1098q0 -33 2 -62.5t6 -58.5q2 -12 8 -29.5t21.5 -34t41 -28t68.5 -11.5t68.5 11.5t41 28t21.5 34t8 29.5q4 29 6.5 58.5t2.5 62.5t-2 62.5t-7 60.5q-2 10 -8 27.5t-21.5 33.5t-41 27.5t-68.5 11.5t-68.5 -11.5t-41 -27.5t-21.5 -33.5t-8 -27.5q-4 -31 -6 -61 t-2 -62zM369 45q0 23 12 41l805 1333q20 33 59 33q35 0 51.5 -17.5t16.5 -41.5q0 -23 -13 -41l-804 -1334q-20 -33 -60 -32q-35 0 -51 17t-16 42zM946 340q0 35 3 68.5t7 66.5q6 41 27 80t56.5 69.5t88 50t119.5 19.5q68 0 120 -19.5t88 -50t56.5 -69.5t26.5 -80 q4 -33 7 -66.5t3 -68.5q0 -37 -3 -69.5t-7 -67.5q-6 -41 -26.5 -80t-56.5 -69.5t-88 -49t-120 -18.5t-120 18.5t-87.5 49t-56 69.5t-27.5 80q-4 35 -7 67.5t-3 69.5zM1100 340q0 -33 2 -62.5t6 -60.5q2 -10 8 -27.5t21.5 -34t41 -27.5t68.5 -11t68.5 11t41 27.5t21.5 34 t8 27.5q4 31 6.5 60.5t2.5 62.5t-2 62.5t-7 58.5q-2 12 -8 29.5t-21.5 34t-41 27.5t-68.5 11t-68.5 -11t-41 -27.5t-21.5 -34t-8 -29.5q-4 -29 -6 -58.5t-2 -62.5z" />
<glyph unicode="&#x26;" horiz-adv-x="1359" d="M113 399q0 141 66.5 258t195.5 203q-59 74 -86 139.5t-27 130.5q0 59 24.5 118t74 104t122 72.5t168.5 27.5q90 0 153.5 -14.5t115.5 -30.5q37 -12 52 -34.5t15 -47.5q0 -18 -6 -33q-20 -59 -84 -59q-20 0 -39 8q-47 16 -95 26.5t-112 10.5q-90 0 -143 -41t-53 -107 q0 -31 17 -76.5t85 -125.5l395 -467q16 57 24.5 114.5t8.5 116.5q0 16 -1 30.5t-1 31.5v8q-2 0 -2 2q0 37 27.5 59.5t64.5 24.5h8h4q35 0 60.5 -21.5t28.5 -60.5q2 -18 3 -36.5t1 -35.5q0 -82 -13.5 -161.5t-38.5 -157.5q-8 -20 -15 -40t-17 -40l135 -162q18 -18 18 -53 q0 -31 -21.5 -59.5t-72.5 -28.5q-47 0 -76 35l-96 112q-25 -25 -51 -45q-143 -109 -338 -108q-104 0 -191.5 30.5t-152 86t-100 131t-35.5 165.5zM305 399q0 -109 79 -174t208 -65q166 0 270 121l-375 442q-33 -23 -65.5 -52.5t-58 -69.5t-42 -90t-16.5 -112z" />
<glyph unicode="'" horiz-adv-x="266" d="M61 1071v367q0 29 21.5 50t50.5 21t50.5 -21.5t21.5 -49.5v-367q0 -29 -21.5 -50.5t-50.5 -21.5t-50.5 21.5t-21.5 50.5z" />
<glyph unicode="(" horiz-adv-x="587" d="M164 629q0 156 13 268.5t38 204.5t59.5 176t77.5 180q25 51 82 51q45 0 68.5 -24.5t23.5 -54.5q0 -16 -6 -35q-43 -96 -76.5 -174t-55 -162t-33 -186.5t-11.5 -243.5t11.5 -243.5t33 -186.5t55 -163t76.5 -173q6 -16 6 -35q0 -31 -23.5 -55.5t-68.5 -24.5q-57 0 -82 51 q-43 96 -77.5 180t-59.5 176.5t-38 205t-13 268.5z" />
<glyph unicode=")" horiz-adv-x="587" d="M61 -172q0 20 9 35q43 94 75.5 173t54 163t33 186.5t11.5 243.5t-11.5 243.5t-33 186.5t-54 161.5t-75.5 174.5q-8 16 -9 35q0 31 24 55t71 24q59 0 80 -51q43 -96 77.5 -180t59 -176t38 -205t13.5 -268q0 -156 -13.5 -268.5t-38 -205t-59 -176t-77.5 -180.5 q-20 -51 -80 -51q-47 0 -71 24.5t-24 55.5z" />
<glyph unicode="*" horiz-adv-x="944" d="M61 1137q0 35 24 58.5t58 23.5q47 0 93.5 -2.5t93.5 -2.5l-105 170q-10 14 -10 37q0 39 27.5 63.5t64.5 24.5q49 0 76 -43l88 -166l90 166q10 20 31.5 31.5t44.5 11.5q37 0 64.5 -24.5t27.5 -63.5q0 -16 -10 -37l-107 -170q47 0 94.5 2.5t94.5 2.5q35 0 58.5 -24 t23.5 -58q0 -35 -23.5 -59.5t-58.5 -24.5q-47 0 -94.5 2t-94.5 4l107 -172q10 -20 10 -37q0 -39 -27.5 -63.5t-64.5 -24.5q-23 0 -44.5 11t-31.5 32l-90 166l-88 -166q-27 -43 -76 -43q-37 0 -64.5 24.5t-27.5 63.5q0 20 10 37l105 172q-47 -2 -93.5 -4t-93.5 -2 q-35 0 -58.5 24.5t-23.5 59.5z" />
<glyph unicode="+" horiz-adv-x="1187" d="M61 539q0 35 24 58.5t62 23.5h357v385q0 35 26.5 56t63.5 21t63.5 -21.5t26.5 -55.5v-385h356q39 0 62.5 -24t23.5 -58q0 -35 -23.5 -58.5t-62.5 -23.5h-356v-385q0 -35 -26.5 -57.5t-63.5 -22.5t-63.5 22.5t-26.5 57.5v385h-357q-39 0 -62.5 23.5t-23.5 58.5z" />
<glyph unicode="," horiz-adv-x="331" d="M10 -184q0 14 10 39q47 90 68 161.5t21 137.5q0 8 -1.5 14t-1.5 14v6v2q0 29 19.5 48.5t48.5 21.5h4h2q29 0 48.5 -19.5t21.5 -47.5v-37q0 -180 -107 -367q-23 -39 -65 -39q-16 0 -33 8q-35 16 -35 58z" />
<glyph unicode="-" horiz-adv-x="770" d="M41 539q0 29 21.5 50t50.5 21h524q29 0 50.5 -21.5t21.5 -49.5q0 -29 -21.5 -50.5t-50.5 -21.5h-524q-29 0 -50.5 21.5t-21.5 50.5z" />
<glyph unicode="." horiz-adv-x="288" d="M41 96q0 53 29.5 81t74.5 28t74 -28t29 -81t-29 -81.5t-74 -28.5t-74.5 28.5t-29.5 81.5z" />
<glyph unicode="/" horiz-adv-x="702" d="M10 -8q0 10 6 26l547 1448q8 18 23.5 30.5t38.5 12.5q35 0 51 -18t16 -45q0 -10 -4 -27l-549 -1448q-6 -18 -22.5 -30.5t-38.5 -12.5q-33 0 -50.5 18.5t-17.5 45.5z" />
<glyph unicode="0" d="M115 719q0 86 4 166t12 149q10 90 45 164t94 129q135 125 344 125t344 -125q59 -55 94 -129t46 -164q8 -70 12 -149.5t4 -165.5t-4 -166t-12 -150q-18 -178 -140 -292q-135 -125 -344 -125t-344 125q-59 55 -94 128.5t-45 163.5q-8 70 -12 150t-4 166zM303 719 q0 -80 4 -157t10 -142q4 -29 17.5 -74t45.5 -87t88 -71.5t146 -29.5t146.5 29.5t88.5 71.5t45 87t17 74q6 66 10.5 142.5t4.5 156.5t-4 156.5t-11 142.5q-4 29 -17 74t-45 87t-88.5 71.5t-146.5 29.5t-146 -29.5t-88 -71.5t-45 -87t-18 -74q-6 -66 -10 -142.5t-4 -156.5z " />
<glyph unicode="1" d="M213 1288q0 63 72 80l311 72q12 4 24.5 4h24.5q55 0 94 -27q31 -23 46.5 -55.5t15.5 -69.5v-1220q0 -37 -27.5 -58.5t-66.5 -21.5t-67 21.5t-28 58.5v1194l-282 -64q-8 -4 -15.5 -4h-13.5q-31 0 -53.5 15.5t-32.5 50.5q-2 8 -2 24z" />
<glyph unicode="2" d="M117 190q0 47 19.5 83t47.5 63l422 356q82 70 134.5 124t81 97t39.5 81t11 75q0 72 -29.5 114t-71.5 63.5t-87 27.5t-74 6q-72 0 -145.5 -22.5t-145.5 -61.5q-29 -16 -55 -16q-47 0 -74 45q-12 20 -12 47q0 23 11.5 42t33.5 32q190 106 387 106q100 0 183.5 -27.5 t142.5 -78t92 -121t33 -156.5q0 -66 -17.5 -125t-56.5 -120.5t-100.5 -126t-149.5 -138.5l-413 -352q-8 -6 -9 -17q0 -6 5.5 -12t13.5 -6h676q41 0 63.5 -25.5t22.5 -60.5t-22.5 -60.5t-63.5 -25.5h-697q-90 0 -143 56.5t-53 133.5z" />
<glyph unicode="3" d="M113 168q0 23 12 47q27 45 78 45q27 0 51 -12q59 -29 149.5 -59.5t178.5 -30.5q45 0 101 9t106.5 36.5t84 80t33.5 138.5q0 125 -86 194.5t-239 69.5h-97q-39 0 -62.5 25.5t-23.5 60.5t23.5 60.5t62.5 25.5h105q31 0 77 6t90 27.5t74.5 63.5t30.5 114q0 66 -24.5 107 t-64.5 64.5t-88 31.5t-95 8q-70 0 -142.5 -22.5t-144.5 -63.5q-33 -14 -55 -14q-51 0 -76 43q-12 27 -12 51q0 25 12 43t33 29q190 106 385 106q100 0 184 -24.5t144 -71.5q66 -53 99.5 -125t33.5 -162q0 -111 -52.5 -184.5t-148.5 -114.5q117 -43 181.5 -130t64.5 -218 q0 -98 -37 -179t-103.5 -138.5t-162 -88t-211.5 -30.5q-117 0 -229.5 33.5t-190.5 74.5q-49 23 -49 74z" />
<glyph unicode="4" d="M111 455q0 23 7 48t17 46l467 846q10 16 30.5 33.5t55.5 17.5q45 0 70.5 -23.5t25.5 -58.5q0 -25 -12 -45l-469 -848q-4 -8 -4 -14q0 -14 20 -15h408v432q0 35 26.5 56.5t67.5 21.5q39 0 66.5 -21.5t27.5 -56.5v-432h117q39 0 62.5 -25.5t23.5 -60.5q0 -37 -23.5 -61.5 t-62.5 -24.5h-117v-198q0 -37 -27.5 -58.5t-66.5 -21.5q-41 0 -67.5 21.5t-26.5 58.5v198h-426q-35 0 -69.5 13.5t-61.5 37t-43 57.5t-16 77z" />
<glyph unicode="5" d="M106 168q0 23 13 47q10 23 31.5 34t46.5 11q23 0 51 -12q59 -29 149 -59.5t178 -30.5q158 0 242 72.5t84 211.5q0 137 -84 210t-242 73h-208q-92 0 -131 43t-39 102v18.5t2 18.5l67 377q10 66 57.5 110t118.5 44h465q41 0 63.5 -26t22.5 -60q0 -35 -22.5 -60.5 t-63.5 -25.5h-444q-4 0 -7 -3t-5 -6l-62 -358h186q119 0 215 -33t164 -94q135 -125 136 -330q0 -207 -136 -329q-137 -127 -379 -127q-117 0 -229.5 33.5t-189.5 72.5q-49 27 -50 76z" />
<glyph unicode="6" d="M125 444q0 266 134 514t390 461q31 27 68 27q53 0 76.5 -26.5t23.5 -59.5q0 -43 -29 -68q-39 -31 -88 -77t-102 -104t-105.5 -127t-95.5 -144q102 59 238 59q109 0 199 -34t154.5 -95t100 -146t35.5 -186q0 -100 -36.5 -184t-106.5 -145q-66 -59 -157 -91t-195 -32h-4 q-111 0 -203 33.5t-157.5 95t-102.5 145.5t-37 184zM313 444q-2 -133 82.5 -208.5t229.5 -77.5q143 0 226 75.5t85 206.5t-82 208t-229 79q-143 0 -226.5 -76t-85.5 -207z" />
<glyph unicode="7" d="M92 1352q0 35 23.5 60.5t62.5 25.5h735q74 0 114 -42t40 -98q0 -12 -2 -25t-8 -28q0 -2 -5 -14t-20.5 -47t-42 -95.5t-71.5 -158.5q-94 -211 -181.5 -424t-175.5 -455q-24 -59 -90 -59q-47 0 -72.5 22.5t-25.5 57.5q0 16 6 34q90 242 178 460t184 429q51 115 81 178.5 t42 92.5h-686q-39 0 -62.5 25.5t-23.5 60.5z" />
<glyph unicode="8" d="M115 422q0 127 60.5 216t168.5 138q-82 43 -128 117t-46 176q0 84 33 154.5t91 121t140 79t180 28.5t180.5 -28.5t140.5 -79t91 -121t33 -154.5q0 -102 -46 -176t-128 -117q109 -49 169 -138t60 -216q0 -96 -37 -176t-102.5 -138.5t-157.5 -90t-203 -31.5t-203 31.5 t-157.5 90t-102 138.5t-36.5 176zM303 422q0 -123 83 -193.5t228 -70.5t228.5 70.5t83.5 193.5t-83 193.5t-229 70.5q-145 0 -228 -70.5t-83 -193.5zM358 1069q0 -98 70 -154.5t186 -56.5q117 0 186.5 56.5t69.5 154.5q0 96 -69.5 153.5t-186.5 57.5t-186.5 -57.5 t-69.5 -153.5z" />
<glyph unicode="9" d="M104 999q0 100 37 184.5t107 145.5q66 59 157 91t195 32h4q111 0 203 -34t157.5 -95t102.5 -145t37 -185q0 -266 -134 -514t-390 -461q-31 -27 -68 -26q-53 0 -76.5 26.5t-23.5 59.5q0 43 28 67q39 31 88.5 77t102.5 104.5t105 126t95 145.5q-102 -59 -237 -59 q-109 0 -199 33.5t-154.5 95t-100.5 145.5t-36 186zM293 997q-2 -131 82 -207.5t229 -78.5q143 0 226 75.5t85 206.5q2 133 -82 209t-229 78q-143 0 -226 -76t-85 -207z" />
<glyph unicode=":" horiz-adv-x="411" d="M123 96q0 53 29.5 81t74.5 28t74 -28t29 -81t-29 -81.5t-74 -28.5t-74.5 28.5t-29.5 81.5zM123 893q0 53 29.5 80.5t74.5 27.5t74 -27.5t29 -80.5t-29 -82t-74 -29t-74.5 29t-29.5 82z" />
<glyph unicode=";" horiz-adv-x="409" d="M51 -184q0 14 10 39q47 90 68 161.5t21 137.5q0 8 -1.5 14t-1.5 14v6q-2 31 18.5 50.5t49.5 21.5h4h2q29 0 48.5 -19.5t21.5 -47.5v-37q0 -180 -107 -367q-23 -39 -65 -39q-16 0 -33 8q-35 16 -35 58zM119 893q0 53 29.5 80.5t74.5 27.5t75 -27.5t30 -80.5t-30 -82 t-75 -29t-74.5 29t-29.5 82z" />
<glyph unicode="&#x3c;" horiz-adv-x="1187" d="M61 539q0 53 25 97t76 66l833 379q25 10 45 11q23 0 45.5 -10.5t32.5 -34.5q8 -16 8 -37q0 -23 -12 -44.5t-37 -33.5l-833 -379q-10 -6 -11 -14q0 -10 11 -15l833 -379q25 -12 37 -33.5t12 -43.5q0 -20 -8 -37q-10 -25 -32.5 -35t-45.5 -10q-20 0 -45 10l-833 379 q-51 23 -76 66.5t-25 97.5z" />
<glyph unicode="=" horiz-adv-x="1187" d="M61 336q0 -35 24 -58.5t62 -23.5h893q39 0 62.5 23.5t23.5 58.5t-23.5 58.5t-62.5 23.5h-893q-39 0 -62.5 -23.5t-23.5 -58.5zM61 741q0 35 24 58.5t62 23.5h893q39 0 62.5 -23.5t23.5 -58.5t-23.5 -58.5t-62.5 -23.5h-893q-39 0 -62.5 24t-23.5 58z" />
<glyph unicode="&#x3e;" horiz-adv-x="1187" d="M61 68q0 23 12.5 44t37.5 33l833 379q10 4 10 15q0 8 -10 14l-833 379q-25 12 -37.5 33.5t-12.5 44.5q0 20 9 37q10 25 32.5 35t44.5 10q20 0 46 -11l833 -379q51 -23 75.5 -66.5t24.5 -96.5t-24.5 -97.5t-75.5 -66.5l-833 -379q-25 -10 -46 -10q-23 0 -45 10t-32 35 q-8 16 -9 37z" />
<glyph unicode="?" horiz-adv-x="950" d="M61 1286q0 51 41 76q70 43 154 66.5t172 23.5t162 -24.5t126 -67.5t81.5 -103.5t29.5 -134.5q0 -61 -17 -110t-51 -96.5t-84 -95.5t-114 -105q-57 -49 -80.5 -111.5t-23.5 -159.5q0 -41 -28 -64.5t-69 -23.5t-68.5 23.5t-27.5 64.5q0 131 38 225.5t124 170.5 q61 55 101 94t64.5 70.5t34 59.5t9.5 58q0 43 -18.5 73t-47 48.5t-66.5 26.5t-75 8q-63 0 -116.5 -18.5t-102.5 -47.5q-27 -14 -59 -14q-23 0 -42.5 8t-31.5 29q-14 23 -15 51zM264 68v49q0 39 27.5 60.5t68.5 21.5t69 -21.5t28 -60.5v-49q0 -39 -28 -60.5t-69 -21.5 t-68.5 21.5t-27.5 60.5z" />
<glyph unicode="@" horiz-adv-x="1773" d="M143 602q0 94 8.5 184.5t24.5 176.5q23 117 83 207t152.5 152t213 94t262.5 32q141 0 262 -32t213 -94t152.5 -152.5t82.5 -206.5q16 -86 24.5 -176.5t8.5 -184.5q0 -129 -24.5 -218t-69.5 -146.5t-106.5 -83t-135.5 -25.5q-59 0 -116.5 26.5t-98.5 80.5 q-49 -51 -115.5 -79t-144.5 -28q-80 0 -144.5 23.5t-109.5 70.5q-94 94 -94 287q0 55 6 121q10 86 37 150.5t62.5 110.5t75.5 75.5t77 48.5q57 29 117.5 41t120.5 12q57 0 109 -10t95 -27q78 -31 78 -94q0 -8 -2 -10l-43 -504q-2 -8 -2 -21q0 -59 30 -87.5t68 -28.5 q37 0 66 15t47.5 52t27.5 97.5t9 150.5q0 172 -31 332q-33 174 -173 261t-359 87t-359.5 -87t-175.5 -261q-14 -80 -21 -162t-7 -170t7 -170t21 -162q35 -174 175.5 -261t359.5 -87q66 0 123 5t112.5 16.5t111.5 30t120 44.5q20 10 49 11q45 0 67 -41q12 -23 13 -43 q0 -27 -15.5 -46.5t-37.5 -29.5q-72 -31 -137.5 -52.5t-130 -34.5t-132 -19.5t-143.5 -6.5q-141 0 -262 32t-213.5 94.5t-152.5 152.5t-83 207q-16 86 -24.5 176t-8.5 184zM641 510q0 -127 51 -182q41 -41 127 -41q53 0 92 18.5t67 47t42 66.5t18 75l35 401q-45 14 -104 14 q-41 0 -82 -8t-76 -24q-137 -70 -162 -265q-4 -29 -6 -53t-2 -49z" />
<glyph unicode="A" horiz-adv-x="1220" d="M41 72q0 8 4 28l367 1205q16 59 65 100t133 41q82 0 131.5 -41t67.5 -100l365 -1205q6 -16 6 -28q0 -37 -28 -58.5t-69 -21.5q-76 0 -98 65l-111 369h-528l-113 -369q-10 -33 -35.5 -49t-62.5 -16q-41 0 -67.5 21.5t-26.5 58.5zM399 602h422l-200 655q-4 12 -11 13 q-6 0 -12 -13z" />
<glyph unicode="B" horiz-adv-x="1359" d="M184 170v1030q0 43 15.5 85t45 76t76 55.5t107.5 21.5h301q123 0 207 -35t136 -90.5t75.5 -126t23.5 -139.5q0 -88 -37.5 -165t-123.5 -126q111 -41 169 -123t58 -217q0 -197 -123 -306.5t-346 -109.5h-397q-82 0 -134.5 49t-52.5 121zM377 176h391q92 0 147.5 22.5 t84 58.5t36.5 78t8 81q0 45 -10 88t-41.5 76.5t-93 54t-162.5 20.5h-360v-479zM377 831h352q23 0 65 3.5t83 24t71.5 64.5t30.5 124q0 215 -250 215h-289q-33 0 -48 -18.5t-15 -43.5v-369z" />
<glyph unicode="C" horiz-adv-x="1308" d="M143 719q0 84 4.5 165t12.5 150q23 199 162 308.5t368 109.5q143 0 242.5 -25.5t177.5 -58.5q25 -10 40 -32.5t15 -51.5q0 -20 -8 -37q-20 -53 -78 -53q-29 0 -49 10q-74 31 -151.5 51.5t-188.5 20.5q-96 0 -159.5 -23.5t-101.5 -61.5t-55.5 -84t-23.5 -91 q-6 -66 -10 -142.5t-4 -154.5q0 -80 4 -156t10 -141q31 -260 340 -260q111 0 188.5 20t151.5 51q20 10 47 11q29 0 49.5 -13.5t30.5 -40.5q8 -16 8 -36q0 -29 -15 -51.5t-40 -32.5q-78 -33 -177 -58.5t-243 -25.5q-229 0 -368.5 109.5t-161.5 307.5q-8 70 -12.5 150 t-4.5 166z" />
<glyph unicode="D" horiz-adv-x="1380" d="M184 238v1030q0 72 48.5 121t125.5 49h304q250 0 395 -125q63 -53 102 -125t55 -158q10 -72 16.5 -146.5t6.5 -164.5t-6 -165t-17 -146q-16 -86 -55 -158t-102 -125q-150 -125 -393 -125h-232q-53 0 -99 18.5t-79 51t-51.5 75.5t-18.5 93zM377 238q0 -61 59 -62h226 q98 0 163.5 23.5t107.5 60.5t62.5 83t28.5 91q10 66 15 133.5t5 151.5t-5 151.5t-15 133.5q-8 45 -28.5 91t-62.5 82.5t-107.5 60.5t-163.5 24h-285v-1024z" />
<glyph unicode="E" horiz-adv-x="1277" d="M184 170v1030q0 49 18.5 92t51.5 76t78 51.5t98 18.5h610q41 0 64.5 -26t23.5 -62q0 -37 -23.5 -62.5t-64.5 -25.5h-602q-29 0 -45 -17.5t-16 -44.5v-369h614q41 0 64.5 -25.5t23.5 -62.5t-23.5 -62.5t-64.5 -25.5h-614v-479h680q41 0 64.5 -25.5t23.5 -62.5t-23.5 -62.5 t-64.5 -25.5h-697q-78 0 -127 49t-49 121z" />
<glyph unicode="F" horiz-adv-x="1261" d="M184 72v1128q0 49 18.5 92t51.5 76t78 51.5t98 18.5h610q41 0 64.5 -26t23.5 -62q0 -37 -23.5 -62.5t-64.5 -25.5h-602q-29 0 -45 -17.5t-16 -44.5v-369h614q41 0 64.5 -25.5t23.5 -62.5t-23.5 -62.5t-64.5 -25.5h-614v-583q0 -35 -27.5 -57.5t-68.5 -22.5t-69 22.5 t-28 57.5z" />
<glyph unicode="G" horiz-adv-x="1353" d="M143 719q0 84 4.5 165t12.5 150q23 199 162 308.5t368 109.5q143 0 242.5 -25.5t177.5 -58.5q31 -12 44 -34.5t13 -47.5q0 -20 -10 -41q-23 -53 -80 -53q-27 0 -47 10q-74 31 -151.5 52.5t-188.5 21.5q-309 0 -340 -260q-6 -66 -10 -141.5t-4 -155.5t4 -156t10 -141 q31 -260 340 -260q51 0 105.5 9t99.5 19.5t73 20.5l27 10q23 8 23 29v340h-199q-41 0 -64.5 25.5t-23.5 62.5t23.5 62.5t64.5 25.5h219q78 0 125 -47t47 -119v-350q0 -76 -40 -124t-105 -71q-4 0 -38 -11t-87 -24.5t-118.5 -23.5t-131.5 -10q-229 0 -368.5 109.5 t-161.5 307.5q-8 70 -12.5 151t-4.5 165z" />
<glyph unicode="H" horiz-adv-x="1400" d="M184 72v1294q0 35 28 57.5t69 22.5t68.5 -22.5t27.5 -57.5v-535h647v535q0 35 27.5 57.5t68.5 22.5t69 -22.5t28 -57.5v-1294q0 -35 -28 -57.5t-69 -22.5t-68.5 22.5t-27.5 57.5v583h-647v-583q0 -35 -27.5 -57.5t-68.5 -22.5t-69 22.5t-28 57.5z" />
<glyph unicode="I" horiz-adv-x="561" d="M184 72v1294q0 35 28 57.5t69 22.5t68.5 -22.5t27.5 -57.5v-1294q0 -35 -27.5 -57.5t-68.5 -22.5t-69 22.5t-28 57.5z" />
<glyph unicode="J" horiz-adv-x="1124" d="M31 150q0 23 10 43q20 51 78 51q29 0 49 -11q78 -35 149.5 -53t167.5 -18q74 0 127.5 25.5t88 65.5t51 91t16.5 102v920q0 35 27.5 57.5t68.5 22.5t69 -22.5t28 -57.5v-920q0 -88 -31 -168.5t-88 -144.5q-66 -72 -157 -109.5t-200 -37.5q-123 0 -215 23.5t-184 64.5 q-55 27 -55 76z" />
<glyph unicode="K" horiz-adv-x="1255" d="M184 72v1294q0 35 28 57.5t69 22.5t68.5 -22.5t27.5 -57.5v-535h90q41 0 67.5 16.5t55.5 53.5l387 502q14 18 34.5 30.5t49.5 12.5q51 0 76.5 -26.5t25.5 -61.5q0 -33 -16 -51l-369 -480q-20 -25 -44.5 -46t-55.5 -38q55 -33 92 -81l406 -531q18 -25 18 -55 q0 -33 -23.5 -58.5t-72.5 -25.5q-59 0 -90 41l-418 549q-35 43 -61.5 58t-61.5 15h-90v-583q0 -35 -27.5 -57.5t-68.5 -22.5t-69 22.5t-28 57.5z" />
<glyph unicode="L" horiz-adv-x="1161" d="M184 238v1128q0 35 28 57.5t69 22.5t68.5 -22.5t27.5 -57.5v-1128q0 -27 19.5 -44.5t47.5 -17.5h609q41 0 64.5 -25.5t23.5 -62.5t-23.5 -62.5t-64.5 -25.5h-609q-53 0 -101 18.5t-83 51t-55.5 75.5t-20.5 93z" />
<glyph unicode="M" horiz-adv-x="1656" d="M184 72v1179q0 35 12.5 70t38 62.5t63.5 45t91 17.5q86 0 134 -46t65 -100l229 -815q4 -10 10 -10q8 0 13 10l229 815q16 53 64.5 99.5t134.5 46.5q51 0 90 -17.5t64.5 -45t38 -62.5t12.5 -70v-1179q0 -35 -28 -57.5t-69 -22.5t-68.5 22.5t-27.5 57.5v1181q0 16 -12 17 q-8 0 -13 -13l-229 -815q-20 -72 -73.5 -105.5t-125.5 -33.5t-124 34t-72 105l-232 815q0 12 -12 13q-10 0 -10 -17v-1181q0 -35 -27.5 -57.5t-68.5 -22.5t-69 22.5t-28 57.5z" />
<glyph unicode="N" horiz-adv-x="1452" d="M184 72v1179q0 80 54.5 137.5t148.5 57.5q72 0 121 -36t72 -89l473 -1143q4 -10 12 -10q10 0 10 14v1184q0 35 27.5 56.5t68.5 21.5t69 -21.5t28 -56.5v-1180q0 -80 -54.5 -137t-148.5 -57q-72 0 -121 34.5t-72 90.5l-473 1143q-4 10 -12 10q-10 0 -10 -17v-1181 q0 -35 -27.5 -57.5t-68.5 -22.5t-69 22.5t-28 57.5z" />
<glyph unicode="O" horiz-adv-x="1380" d="M143 719q0 84 4.5 165t12.5 150q23 199 162 308.5t368 109.5t368.5 -109.5t162.5 -308.5q8 -70 12 -150.5t4 -164.5t-4 -165t-12 -151q-23 -199 -162.5 -308t-368.5 -109t-368.5 109.5t-161.5 307.5q-8 70 -12.5 151t-4.5 165zM336 719q0 -80 4 -156t10 -141 q31 -260 340 -260t340 260q6 66 10 141.5t4 155.5t-4 155.5t-10 141.5q-31 260 -340 260t-340 -260q-6 -66 -10 -141.5t-4 -155.5z" />
<glyph unicode="P" horiz-adv-x="1243" d="M184 72v1118q0 45 15.5 89t47.5 80t79 57.5t112 21.5h295q106 0 188.5 -30t137.5 -83t83.5 -125t28.5 -158t-28.5 -158.5t-83.5 -125.5t-137 -83t-189 -30h-356v-573q0 -35 -27.5 -57.5t-68.5 -22.5t-69 22.5t-28 57.5zM377 821h356q104 0 175 51.5t71 169.5 q0 117 -70.5 168.5t-175.5 51.5h-293q-63 0 -63 -68v-373z" />
<glyph unicode="Q" horiz-adv-x="1380" d="M143 719q0 84 4.5 165t12.5 150q23 199 162 308.5t368 109.5t368.5 -109.5t162.5 -308.5q8 -70 12 -150.5t4 -164.5t-4 -165t-12 -151q-10 -82 -41 -149.5t-80 -118.5l110 -149q16 -23 17 -49q0 -47 -43 -74q-23 -14 -54 -15q-23 0 -44 9.5t-35 29.5l-107 144 q-55 -23 -118.5 -34t-135.5 -11q-229 0 -368.5 109.5t-161.5 307.5q-8 70 -12.5 151t-4.5 165zM336 719q0 -80 4 -156t10 -141q31 -260 340 -260q82 0 144 18l-82 111q-18 20 -19 49q0 45 43 72q27 16 53 16q51 0 80 -39l76 -100q16 29 28.5 60.5t16.5 72.5q6 66 10 141.5 t4 155.5t-4 155.5t-10 141.5q-31 260 -340 260t-340 -260q-6 -66 -10 -141.5t-4 -155.5z" />
<glyph unicode="R" horiz-adv-x="1290" d="M184 72v1118q0 49 16.5 93t49.5 79t81 55.5t111 20.5h291q106 0 188.5 -30t137.5 -83t83.5 -125t28.5 -158q0 -84 -26.5 -154.5t-78.5 -122.5t-129 -83t-177 -35q31 -25 61 -61l357 -453q20 -23 20 -55q0 -33 -23.5 -59.5t-72.5 -26.5q-59 0 -88 39l-428 540 q-37 47 -58.5 60.5t-50.5 13.5h-100v-573q0 -35 -27.5 -57.5t-68.5 -22.5t-69 22.5t-28 57.5zM377 821h356q104 0 175 51.5t71 169.5q0 117 -70.5 168.5t-175.5 51.5h-291q-35 0 -50 -18.5t-15 -49.5v-373z" />
<glyph unicode="S" horiz-adv-x="1169" d="M113 133q0 16 6 35q10 31 31.5 45t50.5 14q23 0 41 -8q43 -14 80.5 -25.5t75.5 -18.5t79 -10t92 -3q141 0 223 67.5t82 182.5q0 33 -10 65.5t-41.5 62t-92 56.5t-161.5 51q-231 53 -339.5 149.5t-108.5 268.5q0 180 126 283.5t345 103.5q182 0 338 -51q63 -23 63 -82 q0 -16 -6 -35q-10 -29 -30.5 -45t-51.5 -16q-10 0 -20.5 2t-20.5 6q-66 23 -130 34t-142 11q-279 0 -279 -211q0 -78 66.5 -135.5t236.5 -95.5q104 -25 187.5 -59t142 -84t90 -118.5t31.5 -160.5q0 -90 -36 -168t-101 -135q-140 -123 -361 -123q-74 0 -131 5t-103 14 t-84 21.5t-75 24.5q-63 18 -63 82z" />
<glyph unicode="T" horiz-adv-x="1134" d="M20 1350q0 37 24 62.5t65 25.5h917q41 0 64.5 -26t23.5 -62q0 -37 -23.5 -62.5t-64.5 -25.5h-362v-1190q0 -35 -28 -57.5t-69 -22.5t-68.5 22.5t-27.5 57.5v1190h-362q-41 0 -65 25.5t-24 62.5z" />
<glyph unicode="U" horiz-adv-x="1400" d="M164 561v805q0 39 30.5 59.5t65.5 20.5t65.5 -20.5t30.5 -59.5v-782q0 -41 2 -81t7 -81q8 -72 36.5 -122t72.5 -81t101.5 -44t124.5 -13q68 0 125.5 13t101.5 44t72.5 81t36.5 122q6 45 7 88t1 90v766q0 39 31 59.5t66 20.5t65.5 -20.5t30.5 -59.5v-780q0 -47 -2 -92 t-6 -91q-12 -109 -58.5 -186.5t-117 -129.5t-161 -76.5t-192.5 -24.5t-192 24.5t-161 76.5t-117 130t-58 186q-4 39 -6 78t-2 80z" />
<glyph unicode="V" horiz-adv-x="1220" d="M41 1366q0 37 26.5 58.5t67.5 21.5q37 0 62.5 -16.5t35.5 -49.5l365 -1200q6 -12 12 -12t11 12l364 1200q23 66 98 66q41 0 69 -21.5t28 -58.5q0 -14 -6 -29l-365 -1204q-18 -59 -67.5 -100t-131.5 -41q-84 0 -133 41t-65 100l-367 1204q-4 20 -4 29z" />
<glyph unicode="W" horiz-adv-x="1787" d="M41 1360q0 35 25.5 60.5t70.5 25.5t67.5 -21.5t28.5 -52.5l224 -1190q2 -14 10 -14q10 0 12 14l213 1098q14 70 68.5 114t134.5 44q78 0 132 -44t69 -114l213 -1098q2 -14 12 -14t12 14l223 1190q6 31 28 52.5t69 21.5q45 0 69.5 -25.5t24.5 -60.5v-19l-223 -1189 q-14 -74 -70.5 -117t-132.5 -43q-72 0 -129 41t-72 119l-215 1097q0 12 -10 13q-10 0 -12 -13l-213 -1097q-16 -78 -73.5 -119t-129.5 -41q-76 0 -131 43t-70 117l-223 1189q-2 6 -2 19z" />
<glyph unicode="X" horiz-adv-x="1394" d="M72 76q0 27 16 51l348 530q39 55 88 91q-20 14 -37.5 31.5t-31.5 39.5l-324 492q-14 25 -14 47q0 35 24.5 61.5t71.5 26.5q37 0 59.5 -16.5t38.5 -40.5l312 -476q35 -51 47 -63t28 -12q14 0 27.5 12t46.5 63l311 476q16 25 40 41t59 16q47 0 71.5 -26.5t24.5 -61.5 q0 -27 -14 -47l-322 -492q-16 -23 -33.5 -40t-36.5 -31q51 -35 86 -91l349 -530q16 -25 16 -51q0 -35 -26.5 -59.5t-71.5 -24.5q-29 0 -53.5 14t-41.5 37l-354 541q-16 25 -27.5 40t-19.5 23t-15 11.5t-16 3.5q-16 0 -31.5 -13.5t-48.5 -64.5l-354 -541q-16 -23 -39.5 -37 t-54.5 -14q-45 0 -71.5 24.5t-26.5 59.5z" />
<glyph unicode="Y" horiz-adv-x="1261" d="M31 1358q0 35 25.5 61.5t70.5 26.5q35 0 57.5 -14.5t36.5 -34.5l330 -486q35 -49 50 -61t30 -12q14 0 29.5 12t50.5 61l331 486q14 20 36 34.5t57 14.5q45 0 70.5 -26.5t25.5 -61.5q0 -27 -14 -47l-338 -496q-33 -47 -70 -82t-82 -53v-608q0 -35 -27.5 -57.5t-68.5 -22.5 t-68.5 22.5t-27.5 57.5v608q-45 18 -82 53t-70 82l-338 496q-14 20 -14 47z" />
<glyph unicode="Z" d="M82 193q0 31 12 66.5t41 66.5l795 907q4 8 4 12q0 16 -16 17h-703q-41 0 -64.5 25.5t-23.5 62.5t23.5 62.5t64.5 25.5h715q96 0 149.5 -54.5t53.5 -136.5q0 -33 -12.5 -67.5t-37.5 -63.5l-798 -911q-4 -4 -4 -10q0 -18 18 -19h760q41 0 64.5 -25.5t23.5 -62.5 t-23.5 -62.5t-64.5 -25.5h-772q-43 0 -80 15.5t-64.5 41t-44 60.5t-16.5 76z" />
<glyph unicode="[" horiz-adv-x="698" d="M184 -98v1454q0 59 42 99t106 40h221q37 0 60.5 -23.5t23.5 -58.5t-23.5 -59.5t-60.5 -24.5h-188v-1401h188q37 0 60.5 -24.5t23.5 -59.5t-23.5 -58.5t-60.5 -23.5h-221q-63 0 -105.5 40t-42.5 100z" />
<glyph unicode="\" horiz-adv-x="702" d="M10 1446q0 27 17.5 45t50.5 18q23 0 39 -12t22 -31l549 -1448q2 -8 3 -14t1 -12q0 -27 -16.5 -45.5t-50.5 -18.5q-23 0 -38.5 12.5t-23.5 30.5l-547 1448q-6 12 -6 27z" />
<glyph unicode="]" horiz-adv-x="698" d="M61 -156q0 35 24 59.5t60 24.5h189v1401h-189q-37 0 -60.5 24.5t-23.5 59.5t24 58.5t60 23.5h222q61 0 104 -40t43 -99v-1454q0 -59 -43 -99.5t-104 -40.5h-222q-37 0 -60.5 24t-23.5 58z" />
<glyph unicode="^" horiz-adv-x="1187" d="M96 584q0 16 6 32l310 770q20 53 65 88t117 35t117 -34.5t65 -88.5l309 -770q6 -16 7 -32q0 -35 -25 -59.5t-72 -24.5q-63 0 -86 55l-305 766q-2 8 -10 8t-10 -8l-305 -766q-23 -55 -86 -55q-47 0 -72 24.5t-25 59.5z" />
<glyph unicode="_" horiz-adv-x="1161" d="M10 -223q0 23 17.5 38t40.5 15h1026q25 0 41 -15.5t16 -37.5q0 -23 -16 -37t-41 -14h-1026q-23 0 -40.5 14t-17.5 37z" />
<glyph unicode="`" horiz-adv-x="675" d="M135 1409q0 23 19 45q18 20 49 21q23 0 45 -17l205 -190q20 -18 20 -49q0 -29 -16 -45q-20 -21 -49 -21q-25 0 -46 16l-204 191q-23 18 -23 49z" />
<glyph unicode="a" horiz-adv-x="1163" d="M113 358q0 59 16 115q76 258 444 258q61 0 127 -7t138 -19q-4 59 -18.5 95t-43.5 58q-63 63 -198 64q-41 0 -75 -2t-65.5 -7.5t-65.5 -13.5t-73 -18q-16 -4 -29 -4q-29 0 -54.5 15t-33.5 46q-4 20 -4 29q0 31 18.5 52t49.5 30q45 12 85 20t79 13t78.5 7.5t89.5 2.5 q210 0 333 -113q76 -70 97.5 -160t21.5 -213v-135q0 -123 -21.5 -213t-97.5 -160q-122 -112 -329 -112h-4q-125 0 -208 29.5t-133.5 70.5t-75 85t-32.5 73q-16 55 -16 114zM301 358q0 -43 8 -67q43 -135 269 -135q135 0 198 63q37 33 51.5 89.5t14.5 162.5v74 q-72 10 -142.5 15t-121.5 5q-86 0 -136.5 -15t-78 -36.5t-38 -45.5t-16.5 -40q-8 -27 -8 -70z" />
<glyph unicode="b" horiz-adv-x="1214" d="M154 539v893q0 35 27.5 56t66.5 21t66.5 -21.5t27.5 -55.5v-400q72 27 144.5 43.5t140.5 16.5q186 0 303.5 -91.5t140.5 -255.5q6 -45 8 -94t2 -112t-2 -112.5t-8 -94.5q-23 -164 -142.5 -255t-310.5 -91q-193 0 -312.5 91t-141.5 255q-8 49 -9 103t-1 104zM342 539 q0 -55 2 -101.5t6 -83.5q29 -198 266 -198h2h2q236 0 265 198q6 41 7 90.5t1 94.5t-1 94t-7 90q-29 199 -267 199q-51 0 -128.5 -15.5t-147.5 -38.5v-329z" />
<glyph unicode="c" horiz-adv-x="1140" d="M133 539q0 63 2 112t8 94q23 164 143 255.5t312 91.5q170 0 369 -91q51 -25 51 -75q0 -18 -10 -43q-25 -49 -78 -49q-25 0 -49 12q-82 37 -149.5 56.5t-133.5 19.5q-240 0 -268 -199q-6 -41 -7 -90t-1 -94t1 -94.5t7 -90.5q29 -198 266 -198h2q66 0 133.5 19.5 t149.5 55.5q25 12 49 13q55 0 78 -49q10 -25 10 -41q0 -27 -14.5 -47.5t-36.5 -30.5q-199 -90 -369 -90q-193 0 -312.5 91t-142.5 255q-6 45 -8 94t-2 113z" />
<glyph unicode="d" horiz-adv-x="1214" d="M133 539q0 63 2 112t8 94q23 164 140.5 255.5t304.5 91.5q68 0 140.5 -16.5t143.5 -43.5v400q0 35 28 56t67 21t66.5 -21.5t27.5 -55.5v-893q0 -49 -1 -103.5t-9 -103.5q-23 -164 -143 -255t-310 -91q-193 0 -312.5 91t-142.5 255q-6 45 -8 94t-2 113zM322 539 q0 -45 1 -94.5t7 -90.5q29 -198 266 -198h2h2q235 0 264 198q4 37 6 83t2 102v329q-70 23 -147.5 38.5t-126.5 15.5q-240 0 -268 -199q-6 -41 -7 -90t-1 -94z" />
<glyph unicode="e" horiz-adv-x="1189" d="M133 539q0 63 2 112t8 94q23 164 143 255.5t312 91.5q190 0 310 -91.5t143 -255.5q6 -37 6 -67q0 -109 -56.5 -159t-158.5 -50h-520q2 -29 3 -58.5t5 -56.5q29 -198 266 -198h2q66 0 133.5 19t149.5 56q25 12 49 13q55 0 78 -49q10 -25 10 -41q0 -27 -14.5 -47.5 t-36.5 -30.5q-199 -90 -369 -90q-193 0 -312.5 91t-142.5 255q-6 45 -8 94t-2 113zM324 639h501q20 0 30.5 8t10.5 37v17.5t-2 21.5q-29 199 -266 199q-239 0 -268 -199q-6 -37 -6 -84z" />
<glyph unicode="f" horiz-adv-x="894" d="M164 70v954q0 123 22.5 213t96.5 160q124 112 331 112h4q121 0 211 -36q55 -23 56 -78q0 -16 -6 -35q-10 -25 -31 -40t-51 -15q-23 0 -41 8q-39 10 -74 18t-68 8q-59 0 -108 -14t-88 -49q-31 -29 -46.5 -74t-19.5 -125h432q39 0 62.5 -25.5t23.5 -60.5t-23.5 -59.5 t-62.5 -24.5h-432v-837q0 -35 -27.5 -56.5t-66.5 -21.5t-66.5 21.5t-27.5 56.5z" />
<glyph unicode="g" horiz-adv-x="1204" d="M133 518.5v50.5v50.5t2 40t3 37t5 42.5q23 166 144 259.5t311 93.5q211 0 334 -113q76 -70 97.5 -159t21.5 -210v-497q0 -123 -21.5 -213t-97.5 -160q-123 -113 -334 -113q-182 0 -381 90q-23 10 -36 32t-13 44q0 25 10 43q10 25 31.5 37t46.5 12t47 -12 q78 -35 152.5 -55.5t142.5 -20.5q135 0 199 64q35 31 50 84t15 151q-68 -27 -136.5 -41t-133.5 -14q-188 0 -307 93t-142 259q-4 25 -5 44.5t-3 39t-2 42zM322 569q0 -53 2 -83.5t6 -69.5q27 -203 268 -203q49 0 123 12.5t141 34.5v350q0 59 -4 100.5t-12 69t-20.5 46 t-28.5 32.5q-68 63 -199 64q-240 0 -268 -205q-2 -18 -4 -33.5t-3 -32t-1 -36v-46.5z" />
<glyph unicode="h" horiz-adv-x="1230" d="M164 70v1362q0 35 27.5 56t66.5 21t66.5 -21.5t27.5 -55.5v-406q66 29 138.5 47.5t140.5 18.5q208 0 327 -113q74 -70 96.5 -160t22.5 -213v-536q0 -35 -27.5 -56.5t-66.5 -21.5q-41 0 -67.5 21.5t-26.5 56.5v536q0 106 -15.5 162.5t-50.5 89.5q-66 63 -200 64 q-61 0 -133 -13.5t-138 -38.5v-800q0 -35 -27.5 -56.5t-66.5 -21.5t-66.5 21.5t-27.5 56.5z" />
<glyph unicode="i" horiz-adv-x="509" d="M154 1337q0 41 29.5 71t70.5 30q43 0 72.5 -30t29.5 -71q0 -43 -29.5 -72.5t-72.5 -29.5q-41 0 -70.5 29.5t-29.5 72.5zM160 70v938q0 35 27.5 56t66.5 21q41 0 67.5 -21.5t26.5 -55.5v-938q0 -35 -26.5 -56.5t-67.5 -21.5q-39 0 -66.5 21.5t-27.5 56.5z" />
<glyph unicode="j" horiz-adv-x="552" d="M-154 -287q0 43 25 63.5t66 20.5q133 0 200 64q39 37 52.5 93t13.5 159v895q0 35 27.5 56t66.5 21q41 0 67.5 -21.5t26.5 -55.5v-895q0 -123 -22.5 -213t-96.5 -160q-122 -113 -335 -113q-43 0 -67 22.5t-24 63.5zM197 1337q0 41 29.5 71t70.5 30t71.5 -30t30.5 -71 q0 -43 -30.5 -72.5t-71.5 -29.5t-70.5 29.5t-29.5 72.5z" />
<glyph unicode="k" horiz-adv-x="1132" d="M164 70v1362q0 35 27.5 56t66.5 21t66.5 -21.5t27.5 -55.5v-777h78q23 0 40 12.5t56 49.5l336 334q16 16 36 25t50 9q47 0 71.5 -24.5t24.5 -56.5q0 -37 -28 -64l-295 -295q-35 -35 -100 -74q31 -18 56 -40.5t46 -45.5l326 -352q23 -27 22 -57q0 -31 -24.5 -57.5 t-71.5 -26.5q-53 0 -82 33l-375 405q-16 18 -26.5 29.5t-18.5 16.5t-15 7t-20 2h-86v-415q0 -35 -27.5 -56.5t-66.5 -21.5t-66.5 21.5t-27.5 56.5z" />
<glyph unicode="l" horiz-adv-x="561" d="M164 356v1074q0 35 27.5 57t66.5 22t66.5 -22.5t27.5 -56.5v-1074q0 -43 6.5 -72.5t18.5 -53t31.5 -44t48.5 -41.5q32 -26 32 -61q0 -29 -20 -55q-27 -37 -70 -37q-29 0 -57 18q-98 68 -138 147t-40 199z" />
<glyph unicode="m" horiz-adv-x="1634" d="M154 70v671q0 72 24.5 135.5t71.5 110.5q109 104 282 105q94 0 168 -32t121 -89q47 57 118 89t163 32q173 -1 282 -105q96 -96 97 -246v-671q0 -35 -27 -56.5t-68 -21.5q-39 0 -66.5 21.5t-27.5 56.5v671q0 20 -5 51t-25.5 60t-58.5 49.5t-101 20.5q-66 0 -102.5 -20.5 t-57 -49.5t-26 -59.5t-5.5 -51.5v-671q0 -35 -26.5 -56.5t-67.5 -21.5q-39 0 -66.5 21.5t-27.5 56.5v671q0 20 -5 51t-25.5 60t-58.5 49.5t-102 20.5q-66 0 -102.5 -20.5t-57 -49.5t-25.5 -59.5t-5 -51.5v-671q0 -35 -27.5 -56.5t-66.5 -21.5t-66.5 21.5t-27.5 56.5z" />
<glyph unicode="n" horiz-adv-x="1216" d="M154 70v536q0 123 22.5 213t95.5 160q125 113 336 113t334 -113q76 -70 98.5 -160t22.5 -213v-536q0 -35 -27.5 -56.5t-66.5 -21.5q-41 0 -68 21.5t-27 56.5v536q0 106 -15 162.5t-50 89.5q-66 63 -201 64q-135 0 -200 -64q-37 -33 -51.5 -89t-14.5 -163v-536 q0 -35 -27.5 -56.5t-66.5 -21.5t-66.5 21.5t-27.5 56.5z" />
<glyph unicode="o" horiz-adv-x="1193" d="M133 539q0 63 2 112t8 94q23 164 143 255.5t312 91.5q190 0 310 -91.5t143 -255.5q8 -49 9 -103t1 -103t-1 -103.5t-9 -103.5q-23 -164 -143 -255t-310 -91q-193 0 -312.5 91t-142.5 255q-6 45 -8 94t-2 113zM322 539q0 -45 1 -94.5t7 -90.5q29 -198 266 -198h2 q238 0 266 198q4 37 6 83t2 102q0 55 -2 101t-6 83q-28 199 -266 199q-240 0 -268 -199q-6 -41 -7 -90t-1 -94z" />
<glyph unicode="p" horiz-adv-x="1214" d="M154 -295v834q0 49 1 103t9 103q23 164 142.5 255.5t311.5 91.5q190 0 310 -91.5t143 -255.5q6 -45 8 -94t2 -112t-2 -112.5t-8 -94.5q-23 -164 -140.5 -255t-303.5 -91q-68 0 -140.5 16t-144.5 43v-340q0 -35 -27.5 -56.5t-66.5 -21.5t-66.5 21.5t-27.5 56.5zM342 209 q70 -23 147.5 -38t128.5 -15h2q236 0 265 198q6 41 7 90.5t1 94.5t-1 94t-7 90q-29 199 -267 199q-240 0 -268 -199q-4 -37 -6 -83t-2 -101v-330z" />
<glyph unicode="q" horiz-adv-x="1214" d="M133 539q0 63 2 112t8 94q23 164 143 255.5t312 91.5q190 0 310 -91.5t143 -255.5q8 -49 9 -103t1 -103v-834q0 -35 -27.5 -56.5t-66.5 -21.5t-67 21.5t-28 56.5v340q-72 -27 -144.5 -43t-139.5 -16q-186 0 -304 91t-141 255q-6 45 -8 94t-2 113zM322 539q0 -45 1 -94.5 t7 -90.5q28 -198 268 -198q49 0 127 15t147 38v330q0 55 -2 101t-6 83q-29 199 -266 199q-240 0 -268 -199q-6 -41 -7 -90t-1 -94z" />
<glyph unicode="r" horiz-adv-x="905" d="M154 70v465q0 63 2 114t8 96q23 166 139.5 256.5t306.5 90.5q55 0 112.5 -10.5t104.5 -26.5q57 -18 58 -76q0 -18 -6 -37q-10 -29 -34 -42t-50 -13q-23 0 -37 6q-23 8 -63 18.5t-85 10.5q-233 0 -260 -199q-4 -37 -6 -83t-2 -105v-465q0 -35 -27.5 -56.5t-66.5 -21.5 t-66.5 21.5t-27.5 56.5z" />
<glyph unicode="s" horiz-adv-x="1009" d="M102 119q0 6 1 12t3 14q6 27 27 44.5t55 17.5q8 0 16.5 -1t18.5 -3q61 -16 131 -31.5t152 -15.5q121 0 167 42t46 103q0 57 -48 90t-179 58q-193 37 -286 114.5t-93 218.5t106 226q106 84 299 84q76 0 135.5 -8.5t118.5 -24.5q31 -8 49.5 -29.5t18.5 -54.5q0 -4 -1 -10.5 t-1 -12.5q-8 -35 -32 -50t-52 -15h-16.5t-16.5 4q-49 12 -96 21.5t-107 9.5q-217 0 -217 -136q0 -59 57.5 -95t169.5 -58q186 -35 282.5 -108.5t96.5 -219.5q0 -57 -21.5 -114.5t-68.5 -102.5t-123.5 -73.5t-187.5 -28.5q-100 0 -184 15t-152 34q-29 8 -48.5 29.5 t-19.5 54.5z" />
<glyph unicode="t" horiz-adv-x="935" d="M154 471v889q0 35 27.5 56.5t66.5 21.5t66.5 -21.5t27.5 -56.5v-283h442q39 0 62.5 -25.5t23.5 -60.5t-23.5 -59.5t-62.5 -24.5h-442v-436q0 -106 14.5 -162.5t51.5 -89.5q39 -35 88 -49t108 -14q33 0 68 8t73 18q18 8 41 8q31 0 51.5 -15t30.5 -40q6 -18 6 -35 q0 -57 -55 -77q-90 -37 -211 -37q-211 0 -336 112q-74 70 -96 160t-22 213z" />
<glyph unicode="u" horiz-adv-x="1216" d="M154 471v537q0 35 27.5 56t66.5 21t66.5 -21.5t27.5 -55.5v-537q0 -106 14.5 -162.5t51.5 -89.5q70 -63 200 -63q135 0 201 63q35 33 50 89.5t15 162.5v537q0 35 27 56t68 21q39 0 66.5 -21.5t27.5 -55.5v-537q0 -123 -22.5 -213t-98.5 -160q-123 -112 -334 -112 t-336 112q-74 70 -96 160t-22 213z" />
<glyph unicode="v" horiz-adv-x="1062" d="M61 1004q0 35 26 58t69 23q74 0 94 -63l190 -594l78 -256q4 -12 14 -12q8 0 13 12l78 256l190 594q22 63 94 63q45 0 69.5 -23.5t24.5 -57.5v-13.5t-4 -15.5l-272 -846q-20 -66 -72.5 -101.5t-120.5 -35.5q-70 0 -122 35.5t-72 101.5l-272 846q-4 20 -5 29z" />
<glyph unicode="w" horiz-adv-x="1685" d="M61 999q0 35 24 59.5t67 24.5q41 0 65.5 -19.5t32.5 -47.5l188 -838q2 -14 15 -14q10 0 12 12l178 754q16 66 64.5 106.5t136.5 40.5q86 0 134 -41t64 -106l179 -754q2 -12 14 -12q10 0 12 14l191 838q6 29 30.5 48t65.5 19q43 0 66.5 -24.5t23.5 -59.5q0 -16 -2 -24 l-186 -832q-16 -72 -69.5 -111.5t-129.5 -39.5t-131 40t-72 109l-178 752q-2 14 -12 14q-12 0 -15 -14l-178 -752q-16 -70 -70.5 -109.5t-129.5 -39.5q-78 0 -130.5 40t-68.5 111l-189 832q-2 8 -2 24z" />
<glyph unicode="x" horiz-adv-x="1153" d="M72 70q0 27 18 55l258 364q33 45 68 74q-41 29 -72 72l-225 319q-16 27 -17 50q0 33 25 57t66 24q66 0 98 -49l244 -346q23 -33 28.5 -39t14.5 -6q8 0 14 6t29 39l241 346q37 49 99 49q41 0 65.5 -24.5t24.5 -56.5q0 -27 -17 -50l-225 -319q-27 -43 -70 -72 q37 -29 66 -74l258 -364q18 -25 18 -55q0 -33 -23.5 -54.5t-64.5 -21.5q-68 0 -100 47l-264 375q-25 35 -33 47t-18 12t-19.5 -12t-34.5 -47l-264 -375q-33 -47 -98 -47q-41 0 -65.5 21.5t-24.5 54.5z" />
<glyph unicode="y" horiz-adv-x="1077" d="M61 1004q0 33 25 57t70 24q31 0 56.5 -15t37.5 -44l293 -690q14 -31 17 -39t7 -8t5 6t10 22l2 2l241 695q23 71 103 71q37 0 62.5 -22.5t25.5 -56.5q0 -18 -6 -33l-328 -942q-27 -76 -60.5 -147.5t-84 -128t-123 -91.5t-176.5 -37h-5h-2q-41 0 -65.5 22.5t-24.5 61.5v4v2 q0 35 21.5 56.5t68.5 25.5q47 2 83 13.5t68 42t60.5 85t59.5 144.5l6 16q-35 16 -70 49t-61 93v2l-307 723q-8 16 -9 37z" />
<glyph unicode="z" horiz-adv-x="1097" d="M82 188q0 49 19.5 85t50.5 63l634 538q6 6 7 17q0 16 -17 16h-563q-41 0 -63.5 24.5t-22.5 59.5t22.5 60.5t63.5 25.5h567q41 0 79 -12t66.5 -36.5t45 -59.5t16.5 -80q0 -39 -18.5 -80t-59.5 -76l-622 -528q-8 -8 -8 -19q0 -16 18 -16h633q39 0 62.5 -24.5t23.5 -59.5 t-23.5 -60.5t-62.5 -25.5h-643q-39 0 -76 13.5t-65.5 38t-46 59t-17.5 77.5z" />
<glyph unicode="{" horiz-adv-x="706" d="M102 629q0 35 21.5 58.5t69.5 23.5q68 0 90 24q16 16 22 45t6 66q0 41 -6 88t-12 90q-6 51 -12.5 100.5t-6.5 96.5q0 61 14.5 116.5t55.5 96.5q72 76 211 75q43 0 66.5 -23.5t23.5 -58.5t-21.5 -58t-66.5 -23q-25 -2 -49.5 -9.5t-36.5 -23.5t-16 -38t-4 -48q0 -41 7 -87 t13 -93q12 -86 12 -154q0 -102 -25.5 -165.5t-76.5 -98.5q51 -35 76.5 -99.5t25.5 -167.5q0 -68 -12 -153q-6 -47 -13 -93t-7 -87q0 -27 4 -48.5t16 -37.5t36.5 -23.5t49.5 -7.5q45 -2 66.5 -24.5t21.5 -57.5q0 -37 -23.5 -60.5t-66.5 -23.5q-139 0 -211 78q-41 41 -55.5 95 t-14.5 116q0 47 6.5 96t12.5 100q6 43 12 90.5t6 90.5q0 35 -6 63.5t-22 44.5q-23 25 -90 25q-47 0 -69 24.5t-22 59.5z" />
<glyph unicode="|" horiz-adv-x="548" d="M184 -170v1597q0 39 27 60.5t63 21.5q37 0 64 -21.5t27 -60.5v-1597q0 -39 -27 -60.5t-64 -21.5t-63.5 21.5t-26.5 60.5z" />
<glyph unicode="}" horiz-adv-x="706" d="M61 -170q0 35 21.5 57.5t67.5 24.5q25 0 49 7t37 24q12 16 16 37.5t4 48.5q0 41 -7 87t-13 93q-12 86 -13 153q0 102 25.5 167t77.5 100q-51 35 -77 98.5t-26 165.5q0 68 13 154q6 47 13 93t7 87q0 27 -4 48t-16 38q-12 16 -37 23t-49 10q-45 0 -67 23.5t-22 57.5 q0 35 24 58.5t67 23.5q139 0 210 -75q41 -41 55.5 -96.5t14.5 -116.5q0 -47 -5 -96.5t-13 -100.5q-6 -43 -12.5 -90t-6.5 -88q0 -37 6.5 -65.5t22.5 -45.5q20 -24 90 -24q47 0 68.5 -23.5t21.5 -58.5t-21.5 -59.5t-68.5 -24.5q-70 0 -90 -25q-16 -16 -22.5 -45t-6.5 -63 q0 -43 6.5 -90.5t12.5 -90.5q8 -51 13 -100t5 -96q0 -61 -14.5 -115.5t-55.5 -95.5q-72 -78 -210 -78q-43 0 -67 23.5t-24 60.5z" />
<glyph unicode="~" horiz-adv-x="1183" d="M164 469q0 14 10 35l2 4q8 14 24.5 37.5t42 47t60.5 42t82 22.5h21q47 0 94 -17t123 -52h2q74 -35 105.5 -46.5t55.5 -11.5h13q37 4 61.5 30t42.5 56l2 5q18 31 58 30q20 0 34 -8q31 -23 31 -57q0 -20 -8 -35l-4 -4q-8 -14 -24.5 -38t-41 -47.5t-60.5 -42t-81 -22.5h-23 q-47 0 -93 16.5t-122 51.5l-4 2q-72 33 -103.5 45t-57.5 12h-11q-39 -4 -63.5 -30.5t-40.5 -55.5l-4 -4q-20 -33 -58 -33q-14 0 -34 11q-31 18 -31 57z" />
<glyph unicode="&#xa1;" horiz-adv-x="520" d="M164 -293v932q0 35 27.5 58.5t68.5 23.5t68.5 -23.5t27.5 -58.5v-932q0 -39 -27.5 -60.5t-68.5 -21.5t-68.5 21.5t-27.5 60.5zM164 961v49q0 39 27.5 60.5t68.5 21.5t68.5 -21.5t27.5 -60.5v-49q0 -39 -27.5 -60.5t-68.5 -21.5t-68.5 21.5t-27.5 60.5z" />
<glyph unicode="&#xa2;" horiz-adv-x="1140" d="M133 717q0 61 2 111.5t8 95.5q23 154 129.5 243.5t278.5 100.5v127q0 25 18.5 41t42.5 16q27 0 44.5 -16.5t17.5 -40.5v-129q135 -14 293 -86q51 -25 51 -78q0 -20 -10 -41q-12 -27 -33 -38t-45 -11q-23 0 -49 10q-111 53 -207 70v-752q96 19 207 70q25 12 49 12 q55 0 78 -49q10 -25 10 -43q0 -25 -14.5 -45.5t-36.5 -30.5q-78 -37 -151 -57.5t-142 -28.5v-129q0 -27 -17.5 -42t-44.5 -15q-25 0 -43 15t-18 42v125q-172 12 -278.5 102t-129.5 244q-6 45 -8 94t-2 113zM322 717q0 -47 1 -95.5t7 -91.5q25 -176 221 -194v760 q-197 -16 -221 -195q-6 -41 -7 -90t-1 -94z" />
<glyph unicode="&#xa3;" horiz-adv-x="1138" d="M82 743q0 27 17.5 44.5t43.5 17.5h93v309q0 74 22.5 135.5t65.5 106.5t106.5 70.5t147.5 25.5q98 0 172.5 -16.5t132.5 -36.5q29 -10 43 -33t14 -47q0 -10 -4 -31q-20 -59 -82 -59q-23 0 -41 8q-66 20 -122 32.5t-111 12.5q-76 0 -116 -46t-40 -128v-303h235 q27 0 44.5 -17.5t17.5 -44.5q0 -25 -17.5 -43t-44.5 -18h-235v-514h229q176 0 312 111q33 27 69 26q33 1 60 -22q25 -23 24 -62q0 -18 -7 -36.5t-19 -28.5q-86 -74 -195 -115t-238 -41h-473q-39 0 -63.5 24.5t-24.5 59.5t24.5 59.5t63.5 24.5h50v514h-93q-27 0 -44 18.5 t-17 42.5z" />
<glyph unicode="&#xa4;" horiz-adv-x="1361" d="M143 252q0 18 17 39l127 133q-57 66 -89 147.5t-32 178.5q0 94 31.5 176t89.5 147l-127 133q-16 20 -17 39q0 25 21 43q20 14 41 15q25 0 45 -21l125 -129q66 47 143.5 71.5t163.5 24.5t163 -24.5t142 -71.5l125 129q20 20 45 21q18 0 41 -15q20 -18 21 -43 q0 -18 -17 -39l-127 -133q57 -66 89 -147.5t32 -175.5q0 -96 -31.5 -178.5t-89.5 -147.5l127 -133q16 -20 17 -39q0 -27 -21 -41q-20 -16 -41 -16l-2 2q-29 0 -43 18l-125 129q-66 -47 -142.5 -71.5t-162.5 -24.5t-164 24.5t-143 71.5l-125 -129q-16 -18 -43 -18l-2 -2 q-20 0 -41 16q-20 14 -21 41zM354 750q0 -70 24.5 -130.5t69 -104.5t104.5 -68.5t130 -24.5t129 24.5t103 68.5t69 104.5t25 130.5t-25 129t-69 103t-103 68.5t-129 24.5t-130 -24.5t-104.5 -68.5t-69 -103t-24.5 -129z" />
<glyph unicode="&#xa5;" horiz-adv-x="1282" d="M41 1358q0 35 25.5 61.5t70.5 26.5q35 0 57.5 -14.5t36.5 -34.5l330 -486q35 -49 50.5 -61t29.5 -12t29.5 12t50.5 61l332 486q14 20 35.5 34.5t56.5 14.5q45 0 70.5 -26.5t25.5 -61.5q0 -27 -14 -47l-338 -496q-4 -4 -8 -12h180q25 0 43 -17.5t18 -44.5q0 -25 -18.5 -43 t-42.5 -18h-324v-133h324q25 0 43 -18.5t18 -43.5q0 -27 -18.5 -44t-42.5 -17h-324v-352q0 -35 -27.5 -57.5t-68.5 -22.5t-68.5 22.5t-27.5 57.5v352h-324q-25 0 -43 17.5t-18 43.5q0 25 18.5 43.5t42.5 18.5h324v133h-324q-25 0 -43 18.5t-18 42.5q0 27 18.5 44.5 t42.5 17.5h180q-4 8 -8 12l-338 496q-14 20 -14 47z" />
<glyph unicode="&#xa6;" horiz-adv-x="507" d="M164 -170v537q0 39 26.5 60.5t63.5 21.5t63.5 -21.5t26.5 -60.5v-537q0 -39 -26.5 -60.5t-63.5 -21.5t-63.5 21.5t-26.5 60.5zM164 891v536q0 39 26.5 60.5t63.5 21.5t63.5 -21.5t26.5 -60.5v-536q0 -39 -26.5 -60.5t-63.5 -21.5t-63.5 21.5t-26.5 60.5z" />
<glyph unicode="&#xa7;" horiz-adv-x="1271" d="M123 668q0 78 42 154.5t111 142.5q-23 33 -35 71.5t-12 85.5q0 68 25 127.5t78 104.5t135 71.5t197 26.5q72 0 144.5 -11t137.5 -32q63 -23 64 -78q0 -10 -4 -26q-8 -27 -29 -43.5t-49 -16.5h-15.5t-17.5 4q-53 16 -116.5 28.5t-121.5 12.5q-131 0 -191 -44t-60 -120 q0 -72 68.5 -115.5t213.5 -72.5q131 -27 219 -63.5t144 -90.5q66 -63 82 -132t16 -120q0 -78 -42 -154.5t-112 -141.5q23 -33 35 -72t12 -86q0 -68 -24.5 -127.5t-77.5 -104.5t-135 -71.5t-197 -26.5q-72 0 -144.5 11.5t-137.5 31.5q-63 23 -64 78q0 10 4 27q8 27 28.5 43 t49.5 16h15.5t17.5 -4q53 -16 116.5 -28.5t120.5 -12.5q131 0 191.5 44t60.5 120q0 72 -68.5 115.5t-213.5 72.5q-131 27 -219.5 63.5t-143.5 90.5q-66 63 -82 131.5t-16 120.5zM303 668q0 -43 10.5 -78t44 -65.5t97 -55.5t168.5 -45q70 -14 132 -33.5t115 -48.5 q47 41 73 91t26 99q0 43 -11.5 78t-45 66t-96 55.5t-167.5 44.5q-70 14 -132 33.5t-116 48.5q-47 -41 -72.5 -91t-25.5 -99z" />
<glyph unicode="&#xa8;" horiz-adv-x="675" d="M70 1290q0 41 29.5 71t70.5 30t70.5 -30t29.5 -71q0 -43 -29.5 -72.5t-70.5 -29.5t-70.5 29.5t-29.5 72.5zM406 1290q0 41 29.5 71t70.5 30t70.5 -30t29.5 -71q0 -43 -29.5 -72.5t-70.5 -29.5t-70.5 29.5t-29.5 72.5z" />
<glyph unicode="&#xa9;" horiz-adv-x="1873" d="M143 629q0 164 62.5 309t170 253.5t253 171t309.5 62.5t308.5 -62.5t252 -171t170 -253.5t62.5 -309t-62.5 -309.5t-170 -254t-252 -171t-308.5 -62.5t-309.5 62.5t-253 171t-170 254t-62.5 309.5zM266 629q0 -139 53.5 -262t144.5 -214.5t213 -144.5t261 -53 q137 0 260 53t213 144.5t143.5 214t53.5 262.5q0 139 -53.5 262t-143.5 214t-213 144.5t-260 53.5q-139 0 -261 -53.5t-213 -144.5t-144.5 -214t-53.5 -262zM526 629q0 113 13 202q16 135 116.5 209t264.5 74q102 0 170.5 -16.5t123.5 -38.5q49 -18 50 -66q0 -14 -7 -32 q-10 -23 -28.5 -35.5t-40.5 -12.5q-20 0 -37 9q-51 18 -104.5 30.5t-126.5 12.5q-201 0 -220 -150q-4 -41 -7 -89t-3 -97q0 -51 3 -99.5t7 -89.5q18 -147 220 -147q74 0 127 12.5t104 30.5q14 8 35 8q23 0 43 -12.5t28 -34.5q6 -16 7 -31q0 -51 -50 -67 q-55 -23 -123.5 -39.5t-170.5 -16.5q-164 0 -264.5 74t-116.5 207q-6 45 -9.5 98t-3.5 107z" />
<glyph unicode="&#xaa;" horiz-adv-x="819" d="M61 924q0 47 13 84q29 94 103.5 139t209.5 45q41 0 92 -5t101 -16q-6 76 -41 105q-47 43 -140 43q-59 0 -99 -8t-97 -25q-20 -4 -31 -4q-51 0 -63 45q-4 8 -5 25q0 51 56 67q66 16 120 24.5t123 8.5q98 0 155.5 -26.5t90.5 -55.5q53 -51 70.5 -116.5t17.5 -153.5v-96 q0 -88 -17.5 -154t-70.5 -115q-33 -29 -91 -55.5t-157 -26.5q-90 0 -149 21.5t-97 51.5t-56.5 61.5t-24.5 54.5q-12 37 -13 82zM215 920q0 -55 41 -95.5t145 -40.5q89 0 138 43q23 18 34 54.5t11 119.5v41q-53 8 -102.5 13.5t-88.5 5.5q-92 0 -128 -27.5t-44 -62.5 q-6 -23 -6 -51z" />
<glyph unicode="&#xab;" horiz-adv-x="841" d="M61 539q0 23 7.5 44t17.5 40l233 368q23 35 62 35q18 0 37 -12q16 -10 25.5 -26.5t9.5 -33.5q0 -20 -13 -39l-231 -368q-4 -4 -4 -8t4 -9l231 -368q12 -18 13 -39q0 -16 -9.5 -32.5t-25.5 -27.5q-18 -12 -37 -12q-39 0 -62 35l-233 369q-10 18 -17.5 39.5t-7.5 44.5z M391 539q0 47 25 84l233 368q10 16 26.5 25.5t33.5 9.5q20 0 39 -12q33 -20 32 -60q0 -18 -10 -39l-233 -368q0 -2 -1 -4t-1 -4q0 -6 2 -9l233 -368q10 -20 10 -39q0 -39 -32 -60q-18 -12 -39 -12q-16 0 -33 9.5t-27 25.5l-233 369q-25 37 -25 84z" />
<glyph unicode="&#xac;" horiz-adv-x="1255" d="M61 727q0 37 25 61.5t64 24.5h868q86 0 131 -46t45 -116v-284q0 -41 -27.5 -63.5t-66.5 -22.5q-41 0 -67.5 22.5t-26.5 63.5v274h-856q-39 0 -64 25.5t-25 60.5z" />
<glyph unicode="&#xad;" horiz-adv-x="831" d="M82 725q0 29 21.5 50.5t50.5 21.5h524q29 0 50.5 -21.5t21.5 -50.5q0 -31 -21.5 -51.5t-50.5 -20.5h-524q-29 0 -50.5 20.5t-21.5 51.5z" />
<glyph unicode="&#xae;" horiz-adv-x="1873" d="M143 629q0 164 62.5 309t170 253.5t253 171t309.5 62.5t308.5 -62.5t252 -171t170 -253.5t62.5 -309t-62.5 -309.5t-170 -254t-252 -171t-308.5 -62.5t-309.5 62.5t-253 171t-170 254t-62.5 309.5zM266 629q0 -139 53.5 -262t144.5 -214.5t213 -144.5t261 -53 q137 0 260 53t213 144.5t143.5 214t53.5 262.5q0 139 -53.5 262t-143.5 214t-213 144.5t-260 53.5q-139 0 -261 -53.5t-213 -144.5t-144.5 -214t-53.5 -262zM596 217v705q0 78 49 131t148 53h196q100 0 158.5 -28.5t89.5 -57.5q72 -72 72 -182q0 -45 -14.5 -90.5t-47.5 -82 t-86 -62t-129 -32.5q16 -10 30.5 -23t29.5 -30l219 -256q14 -16 14 -41q0 -29 -21.5 -53.5t-64.5 -24.5t-65 29l-306 356q-23 27 -36 35t-29 8h-43v-354q0 -31 -23.5 -52.5t-58.5 -21.5t-58.5 21.5t-23.5 52.5zM760 719h229q156 0 156 119t-156 118h-192q-23 0 -30 -9 t-7 -27v-201z" />
<glyph unicode="&#xaf;" horiz-adv-x="675" d="M72 1270q0 25 18.5 43t42.5 18h410q25 0 43 -18.5t18 -42.5q0 -27 -18 -44.5t-43 -17.5h-410q-25 0 -43 17.5t-18 44.5z" />
<glyph unicode="&#xb0;" horiz-adv-x="784" d="M61 1122q0 68 26 128.5t71 105.5t105 71.5t130 26.5q68 0 128.5 -26.5t105.5 -71.5t70.5 -105.5t25.5 -128.5t-25.5 -128t-70.5 -104t-105.5 -70.5t-128.5 -26.5q-70 0 -130 26.5t-105 70.5t-71 104.5t-26 127.5zM186 1122q0 -43 16.5 -79.5t44 -64.5t65.5 -44t81 -16 q86 0 145.5 59t59.5 145q0 43 -16.5 81t-44 65.5t-64.5 44t-80 16.5t-81 -16.5t-65.5 -44t-44 -65.5t-16.5 -81z" />
<glyph unicode="&#xb1;" horiz-adv-x="1187" d="M61 82q0 -35 24 -58.5t62 -23.5h893q39 0 62.5 23.5t23.5 58.5t-23.5 58.5t-62.5 23.5h-893q-39 0 -62.5 -23.5t-23.5 -58.5zM61 743q0 35 24 58.5t62 23.5h357v324q0 35 26.5 58.5t63.5 23.5t63.5 -23.5t26.5 -58.5v-324h356q39 0 62.5 -23.5t23.5 -58.5t-23.5 -57 t-62.5 -22h-356v-324q0 -35 -26.5 -58.5t-63.5 -23.5t-63.5 23.5t-26.5 58.5v324h-357q-39 0 -62.5 22.5t-23.5 56.5z" />
<glyph unicode="&#xb2;" horiz-adv-x="700" d="M51 977q0 25 10.5 49.5t30.5 42.5l29 27q23 20 67.5 61t130.5 119q47 43 77 72.5t47.5 51t24.5 37t7 31.5q0 35 -25.5 59.5t-97.5 24.5q-37 0 -75.5 -12t-77.5 -33q-20 -10 -41 -10q-45 0 -64 35q-10 20 -10 37q0 41 37 59q111 61 231 62q127 0 202 -60.5t75 -165.5 q0 -41 -14.5 -74.5t-41 -67.5t-62.5 -68.5t-81 -75.5q-72 -66 -109.5 -101t-56.5 -51q-23 -20 -26 -22q-2 -2 -2 -5q0 -6 4 -6h340q33 0 51 -19.5t18 -47.5q0 -29 -18 -49.5t-51 -20.5h-400q-41 0 -70.5 17.5t-43.5 46.5q-14 27 -15 57z" />
<glyph unicode="&#xb3;" horiz-adv-x="733" d="M61 971q0 14 7 33q8 18 24.5 27t36.5 9q25 0 43 -10q35 -16 83 -30.5t93 -14.5q27 0 55.5 5t51 18.5t38 38t15.5 61.5q0 41 -18.5 64.5t-44 36t-52 16.5t-45.5 4h-55q-31 0 -51.5 20.5t-20.5 48.5q0 29 20.5 48.5t51.5 19.5h59q18 0 41 3t42.5 13.5t32.5 27.5t13 48 q0 39 -26.5 66.5t-102.5 27.5q-37 0 -74.5 -11t-76.5 -32q-10 -6 -21.5 -8t-21.5 -2q-45 0 -62 35q-10 20 -10 35q0 39 37 59q111 61 229 62q129 0 206 -62.5t77 -169.5q0 -57 -24.5 -94.5t-69.5 -60.5q55 -31 88 -80t33 -115q0 -119 -85 -189.5t-229 -70.5 q-70 0 -136.5 19.5t-113.5 41.5q-37 16 -37 62z" />
<glyph unicode="&#xb4;" horiz-adv-x="675" d="M219 1219q0 31 23 49l204 190q20 16 46 17q29 0 49 -21q16 -23 16 -45q0 -31 -20 -49l-205 -191q-22 -16 -45 -16q-31 0 -49 21q-18 18 -19 45z" />
<glyph unicode="&#xb5;" horiz-adv-x="1247" d="M184 -295v1303q0 35 28 55t67 20t66.5 -20.5t27.5 -54.5v-537q0 -109 14 -164t51 -88q70 -63 201 -63q135 0 201 63q35 33 50 89.5t15 162.5v537q0 35 26.5 55t67.5 20q39 0 67 -20.5t28 -54.5v-537q0 -123 -25 -213t-96 -160q-117 -113 -318 -112q-170 0 -282 84v-365 q0 -35 -28 -56.5t-66 -21.5q-39 0 -67 21.5t-28 56.5z" />
<glyph unicode="&#xb6;" horiz-adv-x="1191" d="M82 1032q0 98 35 173t95 127t139 79t167 27h348q68 0 105 -38t37 -104v-1466q0 -35 -26 -58.5t-64 -23.5q-37 0 -64 23.5t-27 58.5v1444h-114v-1444q0 -35 -25.5 -58.5t-64.5 -23.5q-37 0 -64 23.5t-27 58.5v797h-14q-88 0 -167 26.5t-139 78.5t-95 128t-35 172z" />
<glyph unicode="&#xb7;" horiz-adv-x="370" d="M82 539q0 53 29.5 81.5t74.5 28.5t74 -28.5t29 -81.5t-29 -82t-74 -29t-74.5 28.5t-29.5 82.5z" />
<glyph unicode="&#xb8;" horiz-adv-x="675" d="M160 -301q0 27 15 42t40 15t52.5 -6t58.5 -6q23 0 46 7t23 36q0 20 -15 30.5t-35.5 13.5t-43 2t-37.5 -1q-23 0 -39 12.5t-16 36.5q0 12 8 35t18.5 48.5t20.5 49t14 35.5q16 39 58 39q25 0 43 -17.5t18 -41.5q0 -23 -13.5 -52.5t-21.5 -50.5q70 0 117 -32.5t47 -108.5 q0 -41 -16.5 -69.5t-43 -49t-60 -30t-70.5 -9.5q-18 0 -47 1t-55.5 8.5t-46 21.5t-19.5 41z" />
<glyph unicode="&#xb9;" horiz-adv-x="583" d="M61 1579q0 53 60 66l184 41q8 2 14.5 3t14.5 1q35 0 65 -21q41 -29 41 -78v-678q0 -29 -22 -47t-53 -18q-33 0 -55.5 18.5t-22.5 46.5v627l-131 -29q-8 -2 -25 -2q-23 0 -42 11.5t-26 40.5q-2 6 -2 18z" />
<glyph unicode="&#xba;" horiz-adv-x="825" d="M72 1053q0 45 2 79.5t6 67.5q16 119 104 185.5t228 66.5q141 0 229 -66.5t104 -185.5q4 -33 6.5 -67.5t2.5 -79.5q0 -35 -1 -74t-8 -74q-16 -119 -104 -185.5t-229 -66.5q-139 0 -227.5 66.5t-104.5 185.5q-4 33 -6 68t-2 80zM225 1053q0 -33 1 -68t5 -63 q10 -66 55.5 -101t125.5 -35q82 0 127 35t55 101q6 55 6 131q0 31 -1 65.5t-5 63.5q-18 137 -182 137q-162 0 -181 -137q-4 -29 -5 -63.5t-1 -65.5z" />
<glyph unicode="&#xbb;" horiz-adv-x="841" d="M61 123q0 18 11 39l233 368q2 2 2 9q0 6 -2 8l-233 368q-10 20 -11 39q0 39 33 60q18 12 39 12q39 0 62 -35l231 -368q27 -41 27 -84q0 -45 -27 -84l-231 -369q-23 -35 -62 -35q-20 0 -39 12q-33 20 -33 60zM391 123q0 23 10 39l234 368q0 2 1 4.5t1 4.5t-1 4t-1 4 l-234 368q-10 14 -10 39q0 16 8.5 33t24.5 27q18 12 37 12q39 0 61 -35l234 -368q10 -18 17 -39.5t7 -44.5t-7 -44.5t-17 -39.5l-234 -369q-23 -35 -61 -35q-18 0 -37 12q-16 10 -24.5 26.5t-8.5 33.5z" />
<glyph unicode="&#xbc;" horiz-adv-x="1716" d="M143 1343q0 23 14.5 41.5t43.5 24.5l186 39q16 4 27 4q33 0 67 -20q41 -31 41 -78v-678q0 -29 -22.5 -46.5t-55.5 -17.5q-31 0 -53 17.5t-22 46.5v627l-131 -29q-8 -2 -25 -2q-25 0 -43 11t-25 40q-2 6 -2 20zM377 45q0 23 12 41l805 1333q20 33 59 33q35 0 51.5 -17.5 t16.5 -41.5q0 -23 -12 -41l-803 -1334q-21 -32 -60 -32q-35 0 -52 17t-17 42zM895 244q0 -43 30.5 -79t86.5 -36h237v-80q0 -29 22.5 -46t55.5 -17q31 0 53.5 17t22.5 46v80h29q33 0 53 19.5t20 48.5t-20 48t-53 19h-29v213q0 29 -22.5 49.5t-53.5 20.5q-33 0 -55.5 -20.5 t-22.5 -49.5v-213h-186l256 461q8 14 8 35q0 27 -18.5 46t-59.5 19q-47 0 -67 -37l-273 -489q-14 -29 -14 -55z" />
<glyph unicode="&#xbd;" horiz-adv-x="1716" d="M119 1343q0 23 14 41.5t43 24.5l186 39q8 2 14.5 3t14.5 1q35 0 66 -20q41 -29 41 -78v-678q0 -29 -22.5 -46.5t-53.5 -17.5q-33 0 -55.5 17.5t-22.5 46.5v627l-131 -29q-8 -2 -25 -2q-23 0 -42 11t-25 40q-2 6 -2 20zM354 45q0 23 13 41l802 1333q20 33 60 33 q35 0 52 -17.5t17 -41.5q0 -23 -12 -41l-805 -1334q-20 -32 -59 -32q-35 0 -51.5 17t-16.5 42zM993 121q0 25 9.5 49.5t31.5 42.5l29 27q23 20 67 61t130 119q47 43 77.5 72.5t48 51t24.5 37t7 31.5q0 35 -25.5 59.5t-99.5 24.5q-37 0 -75.5 -12t-75.5 -33q-25 -10 -41 -10 q-20 0 -38 9t-28 26q-8 16 -8 37q0 41 37 59q111 61 229 62q129 0 204 -60.5t75 -165.5q0 -41 -14.5 -74.5t-41 -67.5t-63.5 -67.5t-82 -74.5q-72 -66 -109.5 -102t-56.5 -52q-23 -20 -26 -23q-2 -2 -2 -4q0 -6 6 -6h338q33 0 52 -19.5t19 -47.5q0 -29 -19 -49.5t-52 -20.5 h-398q-84 0 -116 63q-12 27 -13 58z" />
<glyph unicode="&#xbe;" horiz-adv-x="1716" d="M143 733q0 -41 37 -61q45 -23 112.5 -41.5t135.5 -18.5q143 0 229 70t86 188q0 66 -32.5 115t-89.5 80q96 47 96 158q0 104 -77 166.5t-208 62.5q-117 0 -229 -59q-35 -20 -35 -62q0 -18 8 -35q20 -35 62 -34q20 0 45 12q37 20 75.5 31.5t73.5 11.5q78 0 104.5 -28.5 t26.5 -65.5q0 -31 -13 -49.5t-33.5 -27.5t-43 -12.5t-41.5 -3.5l-2 -2l-2 2h-53q-33 0 -53.5 -20t-20.5 -49t20.5 -49.5t53.5 -20.5h53q18 0 46 -4t53.5 -16.5t44 -36t18.5 -64.5q0 -37 -15.5 -61.5t-38 -37.5t-52 -18t-56.5 -5q-43 0 -91 15t-83 32q-25 10 -43 10 q-45 0 -61 -39q-6 -18 -7 -33zM449 45q0 23 12 41l805 1333q20 33 59 33q35 0 51.5 -17.5t16.5 -41.5q0 -23 -13 -41l-805 -1334q-20 -32 -59 -32q-35 0 -51 17t-16 42zM967 244q0 -43 29.5 -79t86.5 -36h238v-80q0 -29 21.5 -46t54.5 -17t55.5 17t22.5 46v80h26 q33 0 53.5 19.5t20.5 48.5t-20.5 48t-53.5 19h-26v213q0 29 -22.5 49.5t-55.5 20.5t-54.5 -20.5t-21.5 -49.5v-213h-188l256 461q10 16 10 35q0 27 -19.5 46t-58.5 19q-51 0 -68 -37l-272 -489q-14 -23 -14 -55z" />
<glyph unicode="&#xbf;" horiz-adv-x="950" d="M102 -45q0 61 17.5 110.5t51.5 96.5t84 95t114 105q57 49 80.5 112t23.5 159q0 41 27.5 64.5t68.5 23.5t69 -23.5t28 -64.5q0 -131 -39 -225.5t-123 -169.5q-61 -55 -101.5 -94.5t-65 -71t-33.5 -59t-9 -58.5q0 -43 18.5 -72.5t47 -48t65.5 -27t74 -8.5q66 0 119 18.5 t100 47.5q27 14 59 14q23 0 43.5 -8t32.5 -29q14 -29 14 -51q0 -51 -41 -76q-72 -43 -154.5 -66.5t-172.5 -23.5q-88 0 -161 24.5t-125 67.5t-82 103.5t-30 134.5zM473 961v49q0 39 27.5 60.5t68.5 21.5t69 -21.5t28 -60.5v-49q0 -39 -28 -60.5t-69 -21.5t-68.5 21.5 t-27.5 60.5z" />
<glyph unicode="&#xc0;" horiz-adv-x="1220" d="M41 72q0 -37 26.5 -58.5t67.5 -21.5q37 0 62.5 16.5t35.5 48.5l113 369h528l111 -369q23 -66 98 -65q41 0 69 21.5t28 58.5q0 12 -6 28l-365 1205q-18 59 -67.5 100t-131.5 41q-84 0 -133 -41t-65 -100l-367 -1205q-4 -20 -4 -28zM399 602l199 655q6 12 12 13q6 0 11 -13 l200 -655h-422zM428 1769q0 27 16 46q20 20 50 20q25 0 45 -16l204 -191q23 -18 23 -49q0 -27 -18 -45q-19 -21 -50 -21q-23 0 -45 17l-204 190q-20 18 -21 49z" />
<glyph unicode="&#xc1;" horiz-adv-x="1220" d="M41 72q0 8 4 28l367 1205q16 59 65 100t133 41q82 0 131.5 -41t67.5 -100l365 -1205q6 -16 6 -28q0 -37 -28 -58.5t-69 -21.5q-76 0 -98 65l-111 369h-528l-113 -369q-10 -33 -35.5 -49t-62.5 -16q-41 0 -67.5 21.5t-26.5 58.5zM399 602h422l-200 655q-4 12 -11 13 q-6 0 -12 -13zM451 1579q0 31 20 49l207 191q20 16 45 16q29 0 49 -20q16 -23 16 -46q0 -31 -20 -49l-207 -190q-20 -17 -45 -17q-29 0 -47 21q-18 18 -18 45z" />
<glyph unicode="&#xc2;" horiz-adv-x="1220" d="M41 72q0 -37 26.5 -58.5t67.5 -21.5q37 0 62.5 16.5t35.5 48.5l113 369h528l111 -369q23 -66 98 -65q41 0 69 21.5t28 58.5q0 12 -6 28l-365 1205q-18 59 -67.5 100t-131.5 41q-84 0 -133 -41t-65 -100l-367 -1205q-4 -20 -4 -28zM358 1585q0 27 19 45l145 146 q39 35 88 34q51 0 86 -34l148 -146q18 -18 18 -45q0 -25 -18 -43q-16 -18 -43 -18q-25 0 -43 18l-148 146l-147 -146q-18 -18 -43 -18q-27 0 -45 18q-16 20 -17 43zM399 602l199 655q6 12 12 13q6 0 11 -13l200 -655h-422z" />
<glyph unicode="&#xc3;" horiz-adv-x="1220" d="M41 72q0 -37 26.5 -58.5t67.5 -21.5q37 0 62.5 16.5t35.5 48.5l113 369h528l111 -369q23 -66 98 -65q41 0 69 21.5t28 58.5q0 12 -6 28l-365 1205q-18 59 -67.5 100t-131.5 41q-84 0 -133 -41t-65 -100l-367 -1205q-4 -20 -4 -28zM301 1608q0 12 6 28q29 59 71 103.5 t114 44.5q41 0 75.5 -19.5t63 -42t53.5 -42t43 -19.5q25 0 38 17.5t24.5 39t25.5 40t43 18.5q25 0 43.5 -18.5t18.5 -43.5q0 -14 -7 -28q-29 -59 -71.5 -103.5t-114.5 -44.5q-41 0 -75 19.5t-63.5 42t-54 42t-42.5 19.5q-25 0 -38.5 -18.5t-23.5 -40t-25.5 -39t-42.5 -17.5 t-44 18.5t-17 43.5zM399 602l199 655q6 12 12 13q6 0 11 -13l200 -655h-422z" />
<glyph unicode="&#xc4;" horiz-adv-x="1220" d="M41 72q0 -37 26.5 -58.5t67.5 -21.5q37 0 62.5 16.5t35.5 48.5l113 369h528l111 -369q23 -66 98 -65q41 0 69 21.5t28 58.5q0 12 -6 28l-365 1205q-18 59 -67.5 100t-131.5 41q-84 0 -133 -41t-65 -100l-367 -1205q-4 -20 -4 -28zM342 1651q0 41 29.5 70.5t70.5 29.5 t71 -29.5t30 -70.5q0 -43 -30 -73t-71 -30t-70.5 30t-29.5 73zM399 602l199 655q6 12 12 13q6 0 11 -13l200 -655h-422zM678 1651q0 41 29.5 70.5t70.5 29.5t71 -29.5t30 -70.5q0 -43 -30 -73t-71 -30t-70.5 30t-29.5 73z" />
<glyph unicode="&#xc5;" horiz-adv-x="1220" d="M41 72q0 -37 26.5 -58.5t67.5 -21.5q37 0 62.5 16.5t35.5 48.5l113 369h528l111 -369q23 -66 98 -65q41 0 69 21.5t28 58.5q0 12 -6 28l-365 1205q-18 59 -67.5 100t-131.5 41q-84 0 -133 -41t-65 -100l-367 -1205q-4 -20 -4 -28zM399 602l199 655q6 12 12 13q6 0 11 -13 l200 -655h-422zM426 1700q0 76 52 128t132 52t132.5 -52t52.5 -128t-52.5 -129t-132.5 -53t-132 53t-52 129zM518 1700q0 -37 25.5 -63.5t66.5 -26.5t66.5 26.5t25.5 63.5t-25.5 63.5t-66.5 26.5t-66.5 -26.5t-25.5 -63.5z" />
<glyph unicode="&#xc6;" horiz-adv-x="2084" d="M41 80q0 20 10 41l651 1196q33 57 85.5 89t123.5 32h906q41 0 64.5 -26t23.5 -62q0 -37 -23.5 -62.5t-64.5 -25.5h-709l39 -431h620q41 0 64.5 -25.5t23.5 -62.5t-23.5 -62.5t-64.5 -25.5h-604l45 -479h656q41 0 64.5 -25.5t23.5 -62.5t-23.5 -62.5t-64.5 -25.5h-654 q-80 0 -133 47t-61 115l-25 264h-551l-209 -385q-27 -49 -90 -49q-49 0 -74.5 27.5t-25.5 60.5zM537 602h438l-60 643q0 12 -12 12q-8 0 -16 -12z" />
<glyph unicode="&#xc7;" horiz-adv-x="1308" d="M143 719q0 84 4.5 165t12.5 150q23 199 162 308.5t368 109.5q143 0 242.5 -25.5t177.5 -58.5q25 -10 40 -32.5t15 -51.5q0 -20 -8 -37q-20 -53 -78 -53q-29 0 -49 10q-74 31 -151.5 51.5t-188.5 20.5q-96 0 -159.5 -23.5t-101.5 -61.5t-55.5 -84t-23.5 -91 q-6 -66 -10 -142.5t-4 -154.5q0 -80 4 -156t10 -141q31 -260 340 -260q111 0 188.5 20.5t151.5 50.5q20 10 47 11q29 0 49.5 -13.5t30.5 -40.5q8 -16 8 -36q0 -29 -15 -51.5t-40 -32.5q-70 -29 -151.5 -52.5t-198.5 -29.5l-25 -62q82 0 124 -38t42 -103q0 -61 -49 -109.5 t-141 -48.5q-35 0 -61.5 3t-57.5 12q-23 6 -37 20t-14 37q0 4 1 7t1 7q4 23 19.5 33t35.5 10q10 0 16 -2q23 -4 41.5 -7t53.5 -3t52 12.5t17 30.5t-15 30.5t-52 16.5h-19q-10 0 -19 -1t-20 -1h-6q-27 0 -41 14.5t-14 34.5q0 8 4 25l33 82q-203 16 -325 123.5t-144 291.5 q-8 70 -12.5 150t-4.5 166z" />
<glyph unicode="&#xc8;" horiz-adv-x="1277" d="M184 170q0 -72 49.5 -121t126.5 -49h697q41 0 64.5 25.5t23.5 62.5t-23.5 62.5t-64.5 25.5h-680v479h614q41 0 64.5 26t23.5 62q0 37 -23.5 62.5t-64.5 25.5h-614v369q0 27 16.5 44.5t44.5 17.5h602q41 0 64.5 25.5t23.5 62.5t-23.5 62.5t-64.5 25.5h-610 q-53 0 -98 -18.5t-78 -51.5t-51.5 -76t-18.5 -92v-1030zM479 1769q0 23 19 46q18 20 49 20q23 0 45 -16l205 -191q20 -18 20 -49q0 -29 -16 -45q-20 -20 -49 -21q-25 0 -45 17l-205 190q-23 18 -23 49z" />
<glyph unicode="&#xc9;" horiz-adv-x="1277" d="M184 170v1030q0 49 18.5 92t51.5 76t78 51.5t98 18.5h610q41 0 64.5 -26t23.5 -62q0 -37 -23.5 -62.5t-64.5 -25.5h-602q-29 0 -45 -17.5t-16 -44.5v-369h614q41 0 64.5 -25.5t23.5 -62.5t-23.5 -62.5t-64.5 -25.5h-614v-479h680q41 0 64.5 -25.5t23.5 -62.5t-23.5 -62.5 t-64.5 -25.5h-697q-78 0 -127 49t-49 121zM524 1579q0 31 21 49l207 191q20 16 45 16q29 0 49 -20q16 -23 16 -46q0 -31 -20 -49l-207 -190q-20 -17 -45 -17q-29 0 -49 21q-16 20 -17 45z" />
<glyph unicode="&#xca;" horiz-adv-x="1277" d="M184 170q0 -72 49.5 -121t126.5 -49h697q41 0 64.5 25.5t23.5 62.5t-23.5 62.5t-64.5 25.5h-680v479h614q41 0 64.5 26t23.5 62q0 37 -23.5 62.5t-64.5 25.5h-614v369q0 27 16.5 44.5t44.5 17.5h602q41 0 64.5 25.5t23.5 62.5t-23.5 62.5t-64.5 25.5h-610 q-53 0 -98 -18.5t-78 -51.5t-51.5 -76t-18.5 -92v-1030zM426 1585q0 27 18 45l148 146q39 35 88 34q47 0 86 -34l147 -146q18 -18 19 -45q0 -25 -19 -43q-18 -18 -43 -18t-43 18l-147 146h-2l-148 -146q-16 -18 -43 -18q-25 0 -43 18t-18 43z" />
<glyph unicode="&#xcb;" horiz-adv-x="1277" d="M184 170q0 -72 49.5 -121t126.5 -49h697q41 0 64.5 25.5t23.5 62.5t-23.5 62.5t-64.5 25.5h-680v479h614q41 0 64.5 26t23.5 62q0 37 -23.5 62.5t-64.5 25.5h-614v369q0 27 16.5 44.5t44.5 17.5h602q41 0 64.5 25.5t23.5 62.5t-23.5 62.5t-64.5 25.5h-610 q-53 0 -98 -18.5t-78 -51.5t-51.5 -76t-18.5 -92v-1030zM416 1651q0 41 29.5 70.5t72.5 29.5q41 0 70.5 -29.5t29.5 -70.5q0 -43 -29.5 -73t-70.5 -30q-43 0 -72.5 30t-29.5 73zM752 1651q0 41 29.5 70.5t70.5 29.5q43 0 72.5 -29.5t29.5 -70.5q0 -43 -29.5 -73t-72.5 -30 q-41 0 -70.5 30t-29.5 73z" />
<glyph unicode="&#xcc;" horiz-adv-x="561" d="M39 1769q0 23 16 46q20 20 49 20q25 0 46 -16l206 -191q20 -20 21 -49q0 -27 -19 -45q-18 -21 -49 -21q-23 0 -45 17l-205 190q-20 18 -20 49zM184 72v1294q0 35 28 57.5t69 22.5t68.5 -22.5t27.5 -57.5v-1294q0 -35 -27.5 -57.5t-68.5 -22.5t-69 22.5t-28 57.5z" />
<glyph unicode="&#xcd;" horiz-adv-x="561" d="M184 72q0 -35 28 -57.5t69 -22.5t68.5 22.5t27.5 57.5v1294q0 35 -27.5 57.5t-68.5 22.5t-69 -22.5t-28 -57.5v-1294zM184 1579q0 29 21 49l207 191q20 16 45 16q29 0 49 -20q16 -23 16 -46q0 -31 -20 -49l-205 -190q-22 -17 -45 -17q-31 0 -49 21q-18 18 -19 45z" />
<glyph unicode="&#xce;" horiz-adv-x="561" d="M29 1585q0 27 18 45l148 146q35 35 86 34q51 0 86 -34l147 -146q18 -18 18 -45q0 -23 -16 -43q-18 -18 -45 -18q-25 0 -43 18l-147 146l-148 -146q-18 -18 -43 -18q-27 0 -45 18q-16 20 -16 43zM184 72v1294q0 35 28 57.5t69 22.5t68.5 -22.5t27.5 -57.5v-1294 q0 -35 -27.5 -57.5t-68.5 -22.5t-69 22.5t-28 57.5z" />
<glyph unicode="&#xcf;" horiz-adv-x="561" d="M12 1651q0 41 30 70.5t71 29.5t70.5 -29.5t29.5 -70.5q0 -43 -29.5 -73t-70.5 -30t-71 30t-30 73zM184 72v1294q0 35 28 57.5t69 22.5t68.5 -22.5t27.5 -57.5v-1294q0 -35 -27.5 -57.5t-68.5 -22.5t-69 22.5t-28 57.5zM348 1651q0 41 30 70.5t71 29.5t70.5 -29.5 t29.5 -70.5q0 -43 -30 -73t-70 -30q-41 0 -71 30t-30 73z" />
<glyph unicode="&#xd0;" horiz-adv-x="1380" d="M43 743q0 29 19.5 48.5t48.5 19.5h73v457q0 72 48.5 121t125.5 49h304q250 0 395 -125q63 -53 102 -125t55 -158q10 -72 16.5 -146.5t6.5 -164.5t-6 -165t-17 -146q-16 -86 -55 -158t-102 -125q-150 -125 -393 -125h-232q-53 0 -99 18.5t-79 51t-51.5 75.5t-18.5 93v440 h-73q-29 0 -48.5 18.5t-19.5 46.5zM377 238q0 -61 59 -62h226q98 0 163.5 23.5t107.5 60.5t62.5 83t28.5 91q10 66 15 133.5t5 151.5t-5 151.5t-15 133.5q-8 45 -28.5 91t-62.5 82.5t-107.5 60.5t-163.5 24h-285v-451h198q29 0 47.5 -19.5t18.5 -48.5t-18.5 -47t-47.5 -18 h-198v-440z" />
<glyph unicode="&#xd1;" horiz-adv-x="1452" d="M184 72v1179q0 80 54.5 137.5t148.5 57.5q72 0 121 -36t72 -89l473 -1143q4 -10 12 -10q10 0 10 14v1184q0 35 27.5 56.5t68.5 21.5t69 -21.5t28 -56.5v-1180q0 -80 -54.5 -137t-148.5 -57q-72 0 -121 34.5t-72 90.5l-473 1143q-4 10 -12 10q-10 0 -10 -17v-1181 q0 -35 -27.5 -57.5t-68.5 -22.5t-69 22.5t-28 57.5zM416 1608q0 12 6 28q29 59 71 103.5t113 44.5q41 0 76 -19.5t64.5 -42t53 -42t42.5 -19.5q25 0 38 17.5t24 39t25.5 40t43.5 18.5q25 0 43 -18.5t18 -43.5q0 -14 -6 -28q-29 -59 -70.5 -103.5t-113.5 -44.5 q-41 0 -76 19.5t-64.5 42t-53 42t-42.5 19.5q-25 0 -38 -18.5t-24 -40t-26.5 -39t-42.5 -17.5t-44 18.5t-17 43.5z" />
<glyph unicode="&#xd2;" horiz-adv-x="1380" d="M143 719q0 84 4.5 165t12.5 150q23 199 162 308.5t368 109.5t368.5 -109.5t162.5 -308.5q8 -70 12 -150.5t4 -164.5t-4 -165t-12 -151q-23 -199 -162.5 -308t-368.5 -109t-368.5 109.5t-161.5 307.5q-8 70 -12.5 151t-4.5 165zM336 719q0 -80 4 -156t10 -141 q31 -260 340 -260t340 260q6 66 10 141.5t4 155.5t-4 155.5t-10 141.5q-31 260 -340 260t-340 -260q-6 -66 -10 -141.5t-4 -155.5zM487 1769q0 23 19 46q18 20 49 20q23 0 45 -16l205 -191q20 -18 20 -49q0 -29 -16 -45q-20 -20 -49 -21q-25 0 -45 17l-205 190 q-23 18 -23 49z" />
<glyph unicode="&#xd3;" horiz-adv-x="1380" d="M143 719q0 -84 4.5 -165t12.5 -151q23 -199 162 -308t368 -109t368.5 109.5t162.5 307.5q8 70 12 151t4 165t-4 165t-12 150q-23 199 -162 308.5t-369 109.5q-229 0 -368.5 -109.5t-161.5 -308.5q-8 -70 -12.5 -150.5t-4.5 -164.5zM336 719q0 80 4 155.5t10 141.5 q31 260 340 260t340 -260q6 -66 10 -141.5t4 -155.5t-4 -156t-10 -141q-31 -260 -340 -260t-340 260q-6 66 -10 141.5t-4 155.5zM549 1579q0 31 20 49l205 191q22 16 45 16q31 0 49 -20q18 -23 19 -46q0 -31 -23 -49l-205 -190q-20 -16 -45 -17q-29 0 -49 21q-16 16 -16 45z " />
<glyph unicode="&#xd4;" horiz-adv-x="1380" d="M143 719q0 84 4.5 165t12.5 150q23 199 162 308.5t368 109.5t368.5 -109.5t162.5 -308.5q8 -70 12 -150.5t4 -164.5t-4 -165t-12 -151q-23 -199 -162.5 -308t-368.5 -109t-368.5 109.5t-161.5 307.5q-8 70 -12.5 151t-4.5 165zM336 719q0 -80 4 -156t10 -141 q31 -260 340 -260t340 260q6 66 10 141.5t4 155.5t-4 155.5t-10 141.5q-31 260 -340 260t-340 -260q-6 -66 -10 -141.5t-4 -155.5zM438 1585q0 27 19 45l147 146q35 35 86 34q51 0 86 -34l148 -146q18 -18 18 -45q0 -23 -16 -43q-18 -18 -45 -18q-25 0 -43 18l-148 146 l-147 -146q-18 -18 -43 -18q-27 0 -45 18q-16 20 -17 43z" />
<glyph unicode="&#xd5;" horiz-adv-x="1380" d="M143 719q0 84 4.5 165t12.5 150q23 199 162 308.5t368 109.5t368.5 -109.5t162.5 -308.5q8 -70 12 -150.5t4 -164.5t-4 -165t-12 -151q-23 -199 -162.5 -308t-368.5 -109t-368.5 109.5t-161.5 307.5q-8 70 -12.5 151t-4.5 165zM336 719q0 -80 4 -156t10 -141 q31 -260 340 -260t340 260q6 66 10 141.5t4 155.5t-4 155.5t-10 141.5q-31 260 -340 260t-340 -260q-6 -66 -10 -141.5t-4 -155.5zM381 1608q0 12 6 28q29 59 71 103.5t113 44.5q41 0 76 -19.5t64.5 -42t53 -42t42.5 -19.5q25 0 38 17.5t24.5 39t25.5 40t43 18.5 q25 0 43 -18.5t18 -43.5q0 -16 -6 -28q-29 -59 -70.5 -103.5t-113.5 -44.5q-41 0 -76 19.5t-64.5 42t-53 42t-42.5 19.5q-25 0 -38 -18.5t-24 -40t-26.5 -39t-42.5 -17.5q-25 0 -43 18.5t-18 43.5z" />
<glyph unicode="&#xd6;" horiz-adv-x="1380" d="M143 719q0 84 4.5 165t12.5 150q23 199 162 308.5t368 109.5t368.5 -109.5t162.5 -308.5q8 -70 12 -150.5t4 -164.5t-4 -165t-12 -151q-23 -199 -162.5 -308t-368.5 -109t-368.5 109.5t-161.5 307.5q-8 70 -12.5 151t-4.5 165zM336 719q0 -80 4 -156t10 -141 q31 -260 340 -260t340 260q6 66 10 141.5t4 155.5t-4 155.5t-10 141.5q-31 260 -340 260t-340 -260q-6 -66 -10 -141.5t-4 -155.5zM422 1651q0 41 29.5 70.5t70.5 29.5t71 -29.5t30 -70.5q0 -43 -30 -73t-71 -30t-70.5 30t-29.5 73zM758 1651q0 41 29.5 70.5t70.5 29.5 t70.5 -29.5t29.5 -70.5q0 -43 -29.5 -73t-70.5 -30t-70.5 30t-29.5 73z" />
<glyph unicode="&#xd7;" horiz-adv-x="1187" d="M57 68q0 33 25 61l389 410l-389 409q-25 27 -25 62q0 33 22.5 57.5t59.5 24.5q29 0 45.5 -7.5t32.5 -25.5l373 -393l373 393q16 18 32.5 25.5t44.5 7.5q37 0 59.5 -25t22.5 -57q0 -35 -24 -62l-389 -409l389 -410q25 -29 24 -61q0 -33 -22.5 -57.5t-59.5 -24.5 q-29 0 -43 5t-34 27l-373 394l-373 -394q-16 -18 -32.5 -25t-45.5 -7q-37 0 -59.5 24.5t-22.5 57.5z" />
<glyph unicode="&#xd8;" horiz-adv-x="1384" d="M141 -10q0 18 11 35l98 147q-74 98 -88 231q-8 70 -12.5 151t-4.5 165t4.5 165t12.5 150q23 199 162 308.5t368 109.5q215 0 352 -100l86 129q18 29 52 28q18 0 35 -10q27 -20 26 -51q0 -18 -10 -35l-98 -147q74 -98 88 -232q8 -70 12 -150.5t4 -164.5t-4 -165t-12 -151 q-23 -199 -162 -308t-369 -109q-213 0 -352 98l-86 -129q-20 -27 -51 -27q-18 0 -35 11q-27 20 -27 51zM338 719q0 -80 4 -155.5t10 -141.5q4 -20 8.5 -38.5t8.5 -35.5l573 854q-86 74 -250 74q-309 0 -340 -260q-6 -66 -10 -141.5t-4 -155.5zM442 236q86 -74 250 -74 q309 0 340 260q6 66 10.5 141.5t4.5 155.5t-4.5 155.5t-10.5 141.5q-4 20 -7 38.5t-9 35.5z" />
<glyph unicode="&#xd9;" horiz-adv-x="1400" d="M164 561v805q0 39 30.5 59.5t65.5 20.5t65.5 -20.5t30.5 -59.5v-782q0 -41 2 -81t7 -81q8 -72 36.5 -122t72.5 -81t101.5 -44t124.5 -13q68 0 125.5 13t101.5 44t72.5 81t36.5 122q6 45 7 88t1 90v766q0 39 31 59.5t66 20.5t65.5 -20.5t30.5 -59.5v-780q0 -47 -2 -92 t-6 -91q-12 -109 -58.5 -186.5t-117 -129.5t-161 -76.5t-192.5 -24.5t-192 24.5t-161 76.5t-117 130t-58 186q-4 39 -6 78t-2 80zM487 1769q0 23 17 46q20 20 49 20q25 0 45 -16l207 -191q20 -18 20 -49q0 -27 -18 -45q-18 -20 -47 -21q-25 0 -45 17l-207 190q-20 18 -21 49 z" />
<glyph unicode="&#xda;" horiz-adv-x="1400" d="M164 561q0 -41 2 -80t6 -78q12 -109 58 -186.5t117 -129.5t161 -76.5t192 -24.5t192.5 24.5t161 76.5t117 130t58.5 186q4 45 6 90.5t2 92.5v780q0 39 -30.5 59.5t-65.5 20.5t-66 -20.5t-31 -59.5v-766q0 -47 -1 -90t-7 -88q-8 -72 -36.5 -122t-72.5 -81t-101.5 -44 t-125.5 -13t-125 13t-101 44t-72.5 81t-36.5 122q-4 41 -6.5 81t-2.5 81v782q0 39 -30.5 59.5t-65.5 20.5t-65.5 -20.5t-30.5 -59.5v-805zM575 1579q0 31 21 49l207 191q20 16 45 16q29 0 49 -20q16 -23 16 -46q0 -31 -20 -49l-207 -190q-20 -16 -45 -17q-29 0 -47 21 q-18 18 -19 45z" />
<glyph unicode="&#xdb;" horiz-adv-x="1400" d="M164 561v805q0 39 30.5 59.5t65.5 20.5t65.5 -20.5t30.5 -59.5v-782q0 -41 2 -81t7 -81q8 -72 36.5 -122t72.5 -81t101.5 -44t124.5 -13q68 0 125.5 13t101.5 44t72.5 81t36.5 122q6 45 7 88t1 90v766q0 39 31 59.5t66 20.5t65.5 -20.5t30.5 -59.5v-780q0 -47 -2 -92 t-6 -91q-12 -109 -58.5 -186.5t-117 -129.5t-161 -76.5t-192.5 -24.5t-192 24.5t-161 76.5t-117 130t-58 186q-4 39 -6 78t-2 80zM449 1585q0 27 18 45l147 146q35 35 86 34q51 0 86 -34l148 -146q18 -18 18 -45q0 -23 -16 -43q-18 -18 -45 -18q-25 0 -43 18l-148 146 l-147 -146q-18 -18 -43 -18q-27 0 -45 18q-16 20 -16 43z" />
<glyph unicode="&#xdc;" horiz-adv-x="1400" d="M164 561v805q0 39 30.5 59.5t65.5 20.5t65.5 -20.5t30.5 -59.5v-782q0 -41 2 -81t7 -81q8 -72 36.5 -122t72.5 -81t101.5 -44t124.5 -13q68 0 125.5 13t101.5 44t72.5 81t36.5 122q6 45 7 88t1 90v766q0 39 31 59.5t66 20.5t65.5 -20.5t30.5 -59.5v-780q0 -47 -2 -92 t-6 -91q-12 -109 -58.5 -186.5t-117 -129.5t-161 -76.5t-192.5 -24.5t-192 24.5t-161 76.5t-117 130t-58 186q-4 39 -6 78t-2 80zM432 1651q0 41 29.5 70.5t70.5 29.5t71 -29.5t30 -70.5q0 -43 -30 -73t-71 -30t-70.5 30t-29.5 73zM768 1651q0 41 29.5 70.5t70.5 29.5 t71 -29.5t30 -70.5q0 -43 -30 -73t-71 -30t-70.5 30t-29.5 73z" />
<glyph unicode="&#xdd;" horiz-adv-x="1261" d="M31 1358q0 35 25.5 61.5t70.5 26.5q35 0 57.5 -14.5t36.5 -34.5l330 -486q35 -49 50 -61t30 -12q14 0 29.5 12t50.5 61l331 486q14 20 36 34.5t57 14.5q45 0 70.5 -26.5t25.5 -61.5q0 -27 -14 -47l-338 -496q-33 -47 -70 -82t-82 -53v-608q0 -35 -27.5 -57.5t-68.5 -22.5 t-68.5 22.5t-27.5 57.5v608q-45 18 -82 53t-70 82l-338 496q-14 20 -14 47zM506 1579q0 31 22 49l205 191q20 16 45 16q31 0 49 -20q18 -23 19 -46q0 -31 -23 -49l-205 -190q-20 -17 -45 -17q-31 0 -49 21q-18 18 -18 45z" />
<glyph unicode="&#xde;" horiz-adv-x="1273" d="M184 72v1294q0 35 28 56.5t69 21.5t68.5 -21.5t27.5 -56.5v-252h356q106 0 188.5 -29.5t137.5 -83t83.5 -125t28.5 -157.5t-28.5 -158t-83.5 -125t-137 -82.5t-189 -29.5h-356v-252q0 -35 -27.5 -57.5t-68.5 -22.5t-69 22.5t-28 57.5zM377 500h356q104 0 175 50t71 169 t-70.5 169t-175.5 50h-356v-438z" />
<glyph unicode="&#xdf;" horiz-adv-x="1232" d="M184 80v938q0 123 22.5 214t96.5 163q63 59 140 86.5t180 27.5q82 0 154.5 -25.5t126.5 -68.5t85 -101.5t31 -125.5q0 -49 -13.5 -88t-34 -70t-45 -53.5t-44.5 -40.5q-35 -29 -46.5 -43t-11.5 -31q0 -16 16.5 -30.5t63.5 -43.5q37 -25 75 -54t68.5 -66t52 -84t27.5 -105 q2 -12 2 -24.5v-24.5q0 -172 -118 -295q-66 -66 -155 -100.5t-193 -34.5h-111q-41 0 -64.5 24.5t-23.5 61.5t23.5 61.5t64.5 24.5h115q61 0 114.5 19.5t89.5 58.5q35 35 52.5 81t17.5 99v33q-6 53 -40 95t-103 85q-27 16 -55.5 36.5t-52 46.5t-39 59.5t-15.5 76.5 q0 37 11 68t28.5 55.5t39 44t40.5 35.5q39 33 57 57.5t18 65.5q0 63 -58 107t-150 44q-72 0 -113 -17t-70 -46q-41 -41 -54 -106.5t-13 -151.5v-938q0 -35 -26.5 -60.5t-67.5 -25.5t-68 25.5t-27 60.5z" />
<glyph unicode="&#xe0;" horiz-adv-x="1163" d="M113 358q0 -59 16 -114q8 -29 32.5 -73t75 -85t133.5 -70.5t208 -29.5q211 0 333 112q76 70 97.5 160t21.5 213v135q0 123 -21.5 213t-97.5 160q-123 113 -333 113q-49 0 -89 -2.5t-79 -7.5t-79 -13t-85 -20q-31 -8 -49.5 -30t-18.5 -52q0 -8 4 -29q8 -31 34 -46t54 -15 q12 0 29 4q39 10 73 18t65.5 13.5t65.5 7.5t75 2q135 0 198 -64q29 -23 43.5 -58.5t18.5 -94.5q-72 12 -137.5 19t-127.5 7q-369 0 -444 -258q-16 -55 -16 -115zM301 358q0 43 8 70q6 16 16.5 40t38 45.5t78 36.5t136.5 15q51 0 121.5 -5t142.5 -15v-74q0 -106 -14.5 -162.5 t-51.5 -89.5q-63 -63 -198 -63q-225 0 -269 135q-8 25 -8 67zM371 1409q0 23 18 45q18 20 49 21q25 0 45 -17l205 -190q23 -18 23 -49q0 -27 -19 -45q-18 -21 -49 -21q-25 0 -45 16l-205 191q-23 18 -22 49z" />
<glyph unicode="&#xe1;" horiz-adv-x="1163" d="M113 358q0 59 16 115q76 258 444 258q61 0 127 -7t138 -19q-4 59 -18.5 95t-43.5 58q-63 63 -198 64q-41 0 -75 -2t-65.5 -7.5t-65.5 -13.5t-73 -18q-16 -4 -29 -4q-29 0 -54.5 15t-33.5 46q-4 20 -4 29q0 31 18.5 52t49.5 30q45 12 85 20t79 13t78.5 7.5t89.5 2.5 q210 0 333 -113q76 -70 97.5 -160t21.5 -213v-135q0 -123 -21.5 -213t-97.5 -160q-123 -113 -333 -112q-125 0 -208 29.5t-133.5 70.5t-75 85t-32.5 73q-16 55 -16 114zM301 358q0 -43 8 -67q43 -135 269 -135q135 0 198 63q37 33 51.5 89.5t14.5 162.5v74q-72 10 -142.5 15 t-121.5 5q-86 0 -136.5 -15t-78 -36.5t-38 -45.5t-16.5 -40q-8 -27 -8 -70zM463 1219q0 31 20 49l207 190q20 16 45 17q29 0 47 -21q18 -23 19 -45q0 -31 -21 -49l-207 -191q-20 -16 -45 -16q-29 0 -49 21q-16 20 -16 45z" />
<glyph unicode="&#xe2;" horiz-adv-x="1163" d="M113 358q0 -59 16 -114q8 -29 32.5 -73t75 -85t133.5 -70.5t208 -29.5q211 0 333 112q76 70 97.5 160t21.5 213v135q0 123 -21.5 213t-97.5 160q-123 113 -333 113q-49 0 -89 -2.5t-79 -7.5t-79 -13t-85 -20q-31 -8 -49.5 -30t-18.5 -52q0 -8 4 -29q8 -31 34 -46t54 -15 q12 0 29 4q39 10 73 18t65.5 13.5t65.5 7.5t75 2q135 0 198 -64q29 -23 43.5 -58.5t18.5 -94.5q-72 12 -137.5 19t-127.5 7q-369 0 -444 -258q-16 -55 -16 -115zM301 358q0 43 8 70q6 16 16.5 40t38 45.5t78 36.5t136.5 15q51 0 121.5 -5t142.5 -15v-74q0 -106 -14.5 -162.5 t-51.5 -89.5q-63 -63 -198 -63q-225 0 -269 135q-8 25 -8 67zM336 1225q0 27 18 45l148 145q35 35 86 35q49 0 88 -35l147 -145q16 -20 17 -45q0 -27 -17 -43q-18 -19 -45 -19q-25 0 -43 19l-147 145l-148 -145q-18 -18 -43 -19q-29 0 -43 19q-18 18 -18 43z" />
<glyph unicode="&#xe3;" horiz-adv-x="1163" d="M113 358q0 -59 16 -114q8 -29 32.5 -73t75 -85t133.5 -70.5t208 -29.5q211 0 333 112q76 70 97.5 160t21.5 213v135q0 123 -21.5 213t-97.5 160q-123 113 -333 113q-49 0 -89 -2.5t-79 -7.5t-79 -13t-85 -20q-31 -8 -49.5 -30t-18.5 -52q0 -8 4 -29q8 -31 34 -46t54 -15 q12 0 29 4q39 10 73 18t65.5 13.5t65.5 7.5t75 2q135 0 198 -64q29 -23 43.5 -58.5t18.5 -94.5q-72 12 -137.5 19t-127.5 7q-369 0 -444 -258q-16 -55 -16 -115zM279 1247q0 8 2 14.5t6 14.5q27 59 69.5 103t114.5 44q39 0 75 -19.5t64.5 -42t52 -42t42.5 -19.5 q27 0 40 17.5t24 39t24.5 40t42.5 18.5q27 0 44 -18.5t17 -42.5q0 -14 -6 -29q-29 -59 -70.5 -103t-113.5 -44q-41 0 -76 19.5t-63.5 42t-52 41.5t-42.5 19q-27 0 -40 -18t-24.5 -39.5t-25.5 -39t-43 -17.5q-25 0 -43 18.5t-18 42.5zM301 358q0 43 8 70q6 16 16.5 40 t38 45.5t78 36.5t136.5 15q51 0 121.5 -5t142.5 -15v-74q0 -106 -14.5 -162.5t-51.5 -89.5q-63 -63 -198 -63q-225 0 -269 135q-8 25 -8 67z" />
<glyph unicode="&#xe4;" horiz-adv-x="1163" d="M113 358q0 -59 16 -114q8 -29 32.5 -73t75 -85t133.5 -70.5t208 -29.5q211 0 333 112q76 70 97.5 160t21.5 213v135q0 123 -21.5 213t-97.5 160q-123 113 -333 113q-49 0 -89 -2.5t-79 -7.5t-79 -13t-85 -20q-31 -8 -49.5 -30t-18.5 -52q0 -8 4 -29q8 -31 34 -46t54 -15 q12 0 29 4q39 10 73 18t65.5 13.5t65.5 7.5t75 2q135 0 198 -64q29 -23 43.5 -58.5t18.5 -94.5q-72 12 -137.5 19t-127.5 7q-369 0 -444 -258q-16 -55 -16 -115zM301 358q0 43 8 70q6 16 16.5 40t38 45.5t78 36.5t136.5 15q51 0 121.5 -5t142.5 -15v-74q0 -106 -14.5 -162.5 t-51.5 -89.5q-63 -63 -198 -63q-225 0 -269 135q-8 25 -8 67zM317 1290q0 41 30 71t71 30t71.5 -30t30.5 -71q0 -43 -30.5 -72.5t-71.5 -29.5t-71 29.5t-30 72.5zM653 1290q0 41 30 71t71 30t70.5 -30t29.5 -71q0 -43 -29.5 -72.5t-70.5 -29.5t-71 29.5t-30 72.5z" />
<glyph unicode="&#xe5;" horiz-adv-x="1163" d="M113 358q0 -59 16 -114q8 -29 32.5 -73t75 -85t133.5 -70.5t208 -29.5q211 0 333 112q76 70 97.5 160t21.5 213v135q0 123 -21.5 213t-97.5 160q-123 113 -333 113q-49 0 -89 -2.5t-79 -7.5t-79 -13t-85 -20q-31 -8 -49.5 -30t-18.5 -52q0 -8 4 -29q8 -31 34 -46t54 -15 q12 0 29 4q39 10 73 18t65.5 13.5t65.5 7.5t75 2q135 0 198 -64q29 -23 43.5 -58.5t18.5 -94.5q-72 12 -137.5 19t-127.5 7q-369 0 -444 -258q-16 -55 -16 -115zM301 358q0 43 8 70q6 16 16.5 40t38 45.5t78 36.5t136.5 15q51 0 121.5 -5t142.5 -15v-74q0 -106 -14.5 -162.5 t-51.5 -89.5q-63 -63 -198 -63q-225 0 -269 135q-8 25 -8 67zM401 1339q0 76 52.5 128.5t132.5 52.5t132 -52.5t52 -128.5t-52 -129t-132 -53t-132.5 53.5t-52.5 128.5zM494 1339q0 -37 25.5 -63.5t66.5 -26.5t66.5 27t25.5 63q0 37 -25.5 64t-66.5 27t-66.5 -27t-25.5 -64z " />
<glyph unicode="&#xe6;" horiz-adv-x="1900" d="M113 358q0 59 16 115q76 258 444 258q61 0 127 -7t138 -19q-4 59 -18.5 95t-43.5 58q-63 63 -198 64q-41 0 -75 -2t-65.5 -7.5t-65.5 -13.5t-73 -18q-16 -4 -29 -4q-29 0 -54.5 15t-33.5 46q-4 20 -4 29q0 31 18.5 52t49.5 30q45 12 85 20t79 13t78.5 7.5t89.5 2.5 q211 0 333 -113l18.5 -18.5t16.5 -18.5q57 72 148.5 111t214.5 39q190 0 310 -91.5t142 -255.5q6 -37 6 -67q0 -109 -55 -159t-158 -50h-520q0 -29 2 -58.5t6 -56.5q29 -199 267 -198q66 0 134 19t148 56q27 12 51 13q53 0 76 -49q10 -18 11 -41q0 -27 -14.5 -47.5 t-37.5 -30.5q-195 -90 -368 -90q-123 0 -214 38.5t-149 110.5q-8 -10 -16 -18l-19 -19q-123 -113 -333 -112q-125 0 -208 29.5t-133.5 70.5t-75 85t-32.5 73q-16 55 -16 114zM301 358q0 -43 8 -67q43 -135 269 -135q135 0 198 63q37 33 51.5 89.5t14.5 162.5v74 q-72 10 -142.5 15t-121.5 5q-86 0 -136.5 -15t-78 -36.5t-38 -45.5t-16.5 -40q-8 -27 -8 -70zM1034 639h502q23 0 33 8t10 37q0 8 -1 17.5t-3 21.5q-29 199 -266 199q-238 0 -267 -199q-4 -18 -5 -39.5t-3 -44.5z" />
<glyph unicode="&#xe7;" horiz-adv-x="1140" d="M133 539q0 51 1 103t9 103q14 90 54.5 156t100.5 108t137 62.5t163 20.5q94 0 188.5 -25t180.5 -66q51 -27 51 -75q0 -39 -24.5 -65.5t-63.5 -26.5q-25 0 -49 12q-70 29 -138.5 52.5t-144.5 23.5q-100 0 -156.5 -30t-83 -81t-31.5 -122t-5 -150q0 -80 5 -151t31.5 -122 t83 -80.5t156.5 -29.5q76 0 144.5 23.5t138.5 51.5q25 12 49 13q39 0 63.5 -27t24.5 -63q0 -51 -51 -78q-68 -33 -142.5 -54.5t-148.5 -31.5l-25 -64q70 0 117 -32.5t47 -108.5q0 -41 -16.5 -69.5t-43 -49t-60 -30t-70.5 -9.5q-18 0 -47 1t-55.5 8.5t-46 21.5t-19.5 41 q0 25 15 41t40 16t52.5 -6t58.5 -6q23 0 46 7t23 36q0 33 -30.5 40t-55.5 7q-14 0 -31.5 -1t-33 2t-25.5 13.5t-10 32.5q0 20 15.5 54t23.5 53q-160 12 -268.5 97t-133.5 247q-8 51 -9 103t-1 104z" />
<glyph unicode="&#xe8;" horiz-adv-x="1189" d="M133 539q0 -63 2 -112.5t8 -94.5q23 -164 143 -255t312 -91q170 0 369 90q23 10 37 30.5t14 47.5q0 16 -10 41q-23 49 -78 49q-24 -1 -49 -13q-82 -37 -149.5 -56t-133.5 -19q-240 0 -268 198q-4 27 -5 56.5t-3 58.5h520q102 0 158.5 50t56.5 159q0 31 -6 67 q-23 164 -143 255.5t-310 91.5q-193 0 -312.5 -91.5t-142.5 -255.5q-6 -45 -8 -94t-2 -112zM324 639q0 47 6 84q29 199 268 199q238 0 266 -199q2 -12 2 -21.5v-17.5q0 -29 -10 -37t-31 -8h-501zM418 1409q0 23 18 45q18 20 49 21q23 0 45 -17l205 -190q20 -18 21 -49 q0 -29 -17 -45q-20 -21 -49 -21q-25 0 -45 16l-205 191q-23 18 -22 49z" />
<glyph unicode="&#xe9;" horiz-adv-x="1189" d="M133 539q0 63 2 112t8 94q23 164 143 255.5t312 91.5q190 0 310 -91.5t143 -255.5q6 -37 6 -67q0 -109 -56.5 -159t-158.5 -50h-520q2 -29 3 -58.5t5 -56.5q29 -199 268 -198q66 0 133.5 19t149.5 56q25 12 49 13q55 0 78 -49q10 -25 10 -41q0 -27 -14.5 -47.5 t-36.5 -30.5q-199 -90 -369 -90q-193 0 -312.5 91t-142.5 255q-6 45 -8 94t-2 113zM324 639h501q20 0 30.5 8t10.5 37v17.5t-2 21.5q-29 199 -266 199q-239 0 -268 -199q-6 -37 -6 -84zM446 1219q0 31 23 49l205 190q20 16 45 17q29 0 49 -21q16 -18 16 -45q0 -31 -20 -49 l-205 -191q-22 -16 -45 -16q-31 0 -49 21q-18 18 -19 45z" />
<glyph unicode="&#xea;" horiz-adv-x="1189" d="M133 539q0 -63 2 -112.5t8 -94.5q23 -164 143 -255t312 -91q170 0 369 90q23 10 37 30.5t14 47.5q0 16 -10 41q-23 49 -78 49q-24 -1 -49 -13q-82 -37 -149.5 -56t-133.5 -19q-240 0 -268 198q-4 27 -5 56.5t-3 58.5h520q102 0 158.5 50t56.5 159q0 31 -6 67 q-23 164 -143 255.5t-310 91.5q-193 0 -312.5 -91.5t-142.5 -255.5q-6 -45 -8 -94t-2 -112zM324 639q0 47 6 84q29 199 268 199q238 0 266 -199q2 -12 2 -21.5v-17.5q0 -29 -10 -37t-31 -8h-501zM358 1225q0 27 19 45l147 145q39 35 88 35q47 0 86 -35l148 -145 q18 -18 18 -45q0 -25 -18 -43q-18 -19 -43 -19t-43 19l-148 145h-2l-147 -145q-16 -18 -43 -19q-25 0 -43 19q-18 18 -19 43z" />
<glyph unicode="&#xeb;" horiz-adv-x="1189" d="M133 539q0 -63 2 -112.5t8 -94.5q23 -164 143 -255t312 -91q170 0 369 90q23 10 37 30.5t14 47.5q0 16 -10 41q-23 49 -78 49q-24 -1 -49 -13q-82 -37 -149.5 -56t-133.5 -19q-240 0 -268 198q-4 27 -5 56.5t-3 58.5h520q102 0 158.5 50t56.5 159q0 31 -6 67 q-23 164 -143 255.5t-310 91.5q-193 0 -312.5 -91.5t-142.5 -255.5q-6 -45 -8 -94t-2 -112zM324 639q0 47 6 84q29 199 268 199q238 0 266 -199q2 -12 2 -21.5v-17.5q0 -29 -10 -37t-31 -8h-501zM340 1290q0 41 29.5 71t72.5 30q41 0 71 -30t30 -71q0 -43 -30 -72.5 t-71 -29.5q-43 0 -72.5 29.5t-29.5 72.5zM676 1290q0 41 29.5 71t72.5 30q41 0 71 -30t30 -71q0 -43 -30 -72.5t-71 -29.5q-43 0 -72.5 29.5t-29.5 72.5z" />
<glyph unicode="&#xec;" horiz-adv-x="509" d="M10 1409q0 23 19 45q18 20 49 21q23 0 45 -17l205 -190q20 -18 20 -49q0 -25 -16 -45q-20 -21 -49 -21q-25 0 -45 16l-207 191q-20 20 -21 49zM160 70v938q0 35 27.5 56t66.5 21q41 0 67.5 -21.5t26.5 -55.5v-938q0 -35 -26.5 -56.5t-67.5 -21.5q-39 0 -66.5 21.5 t-27.5 56.5z" />
<glyph unicode="&#xed;" horiz-adv-x="509" d="M160 70q0 -35 27.5 -56.5t66.5 -21.5q41 0 67.5 21.5t26.5 56.5v938q0 35 -26.5 56t-67.5 21q-39 0 -66.5 -21.5t-27.5 -55.5v-938zM160 1219q0 31 22 49l205 190q20 16 45 17q31 0 49 -21q18 -23 19 -45q0 -31 -23 -49l-205 -191q-20 -16 -45 -16q-31 0 -49 21 q-18 18 -18 45z" />
<glyph unicode="&#xee;" horiz-adv-x="509" d="M2 1225q0 27 18 45l148 145q39 35 86 35q49 0 88 -35l147 -145q18 -18 19 -45q0 -25 -19 -43q-18 -19 -43 -19q-27 0 -45 19l-145 145h-2l-148 -145q-18 -18 -43 -19q-25 0 -43 19q-18 18 -18 43zM160 70v938q0 35 27.5 56t66.5 21q41 0 67.5 -21.5t26.5 -55.5v-938 q0 -35 -26.5 -56.5t-67.5 -21.5q-39 0 -66.5 21.5t-27.5 56.5z" />
<glyph unicode="&#xef;" horiz-adv-x="509" d="M-14 1290q0 41 29.5 71t70.5 30q43 0 72.5 -30t29.5 -71q0 -43 -29.5 -72.5t-72.5 -29.5q-41 0 -70.5 29.5t-29.5 72.5zM160 70v938q0 35 27.5 56t66.5 21q41 0 67.5 -21.5t26.5 -55.5v-938q0 -35 -26.5 -56.5t-67.5 -21.5q-39 0 -66.5 21.5t-27.5 56.5zM322 1290 q0 41 29.5 71t70.5 30t71.5 -30t30.5 -71q0 -43 -30.5 -72.5t-71.5 -29.5t-70.5 29.5t-29.5 72.5z" />
<glyph unicode="&#xf0;" horiz-adv-x="1193" d="M133 539q0 49 1 103t9 103q23 164 132.5 255.5t285.5 91.5q127 0 225 -52q-59 98 -157 181l-160 -62q-6 -4 -20 -4q-18 0 -35 10.5t-23 28.5q-4 8 -4 23q0 41 39 57l82 31q-37 20 -80 43q-25 10 -36 30.5t-11 42.5q0 18 10 43q10 18 28.5 31.5t47.5 13.5q18 0 39.5 -7 t56.5 -25q41 -23 77 -45.5t69 -49.5l145 56q12 4 20 4q18 0 35 -11.5t23 -29.5q4 -6 4 -21q0 -18 -10.5 -34.5t-28.5 -22.5l-84 -33q213 -225 244 -561q2 -27 3 -75t1 -115q0 -63 -2 -112.5t-8 -94.5q-23 -164 -143 -255t-310 -91q-193 0 -312.5 91t-142.5 255q-8 49 -9 103 t-1 104zM322 539q0 -55 2 -101.5t6 -83.5q29 -199 268 -198q237 -1 266 198q6 41 7 90.5t1 94.5t-1 94t-7 90q-29 199 -266 199q-240 0 -268 -199q-4 -37 -6 -83t-2 -101z" />
<glyph unicode="&#xf1;" horiz-adv-x="1216" d="M154 70v536q0 123 22.5 213t95.5 160q125 113 336 113t334 -113q76 -70 98.5 -160t22.5 -213v-536q0 -35 -27.5 -56.5t-66.5 -21.5q-41 0 -68 21.5t-27 56.5v536q0 106 -15 162.5t-50 89.5q-66 63 -201 64q-135 0 -200 -64q-37 -33 -51.5 -89t-14.5 -163v-536 q0 -35 -27.5 -56.5t-66.5 -21.5t-66.5 21.5t-27.5 56.5zM299 1247q0 12 6 29q29 59 71 103t113 44q41 0 76 -19.5t63.5 -42t53.5 -42t43 -19.5q25 0 38 17.5t24.5 39t25.5 40t43 18.5q25 0 43.5 -18.5t18.5 -42.5q0 -14 -7 -29q-29 -59 -70.5 -103t-113.5 -44 q-41 0 -76 19.5t-64.5 42t-53 41.5t-41.5 19q-25 0 -38.5 -18t-24.5 -39.5t-26.5 -39t-42.5 -17.5t-44 18.5t-17 42.5z" />
<glyph unicode="&#xf2;" horiz-adv-x="1193" d="M133 539q0 63 2 112t8 94q23 164 143 255.5t312 91.5q190 0 310 -91.5t143 -255.5q8 -49 9 -103t1 -103t-1 -103.5t-9 -103.5q-23 -164 -143 -255t-310 -91q-193 0 -312.5 91t-142.5 255q-6 45 -8 94t-2 113zM322 539q0 -45 1 -94.5t7 -90.5q29 -199 268 -198 q238 0 266 198q4 37 6 83t2 102q0 55 -2 101t-6 83q-28 199 -266 199q-240 0 -268 -199q-6 -41 -7 -90t-1 -94zM403 1409q0 23 17 45q20 20 49 21q27 0 45 -19l207 -188q20 -18 20 -49q0 -27 -18 -45q-18 -21 -47 -21t-45 16l-207 191q-20 18 -21 49z" />
<glyph unicode="&#xf3;" horiz-adv-x="1193" d="M133 539q0 -63 2 -112.5t8 -94.5q23 -164 142.5 -255t312.5 -91q190 0 310 91t143 255q8 49 9 103t1 104q0 49 -1 103t-9 103q-23 164 -143 255.5t-310 91.5q-193 0 -312.5 -91.5t-142.5 -255.5q-6 -45 -8 -94t-2 -112zM322 539q0 45 1 94t7 90q28 199 268 199 q238 0 266 -199q4 -37 6 -83t2 -101t-2 -101.5t-6 -83.5q-29 -199 -266 -198q-240 0 -268 198q-6 41 -7 90.5t-1 94.5zM453 1219q0 29 20 49l207 188q18 18 45 19q29 0 49 -21q16 -23 17 -45q0 -31 -21 -49l-205 -191q-18 -16 -47 -16t-47 21q-18 18 -18 45z" />
<glyph unicode="&#xf4;" horiz-adv-x="1193" d="M133 539q0 63 2 112t8 94q23 164 143 255.5t312 91.5q190 0 310 -91.5t143 -255.5q8 -49 9 -103t1 -103t-1 -103.5t-9 -103.5q-23 -164 -143 -255t-310 -91q-193 0 -312.5 91t-142.5 255q-6 45 -8 94t-2 113zM322 539q0 -45 1 -94.5t7 -90.5q29 -199 268 -198 q238 0 266 198q4 37 6 83t2 102q0 55 -2 101t-6 83q-28 199 -266 199q-240 0 -268 -199q-6 -41 -7 -90t-1 -94zM344 1225q0 27 18 43l148 147q39 35 88 35q47 0 86 -35l147 -147q18 -16 19 -43q0 -25 -19 -43q-18 -19 -43 -19t-43 19l-147 145h-2l-147 -145q-16 -18 -43 -19 q-25 0 -44 19q-18 18 -18 43z" />
<glyph unicode="&#xf5;" horiz-adv-x="1193" d="M133 539q0 63 2 112t8 94q23 164 143 255.5t312 91.5q190 0 310 -91.5t143 -255.5q8 -49 9 -103t1 -103t-1 -103.5t-9 -103.5q-23 -164 -143 -255t-310 -91q-193 0 -312.5 91t-142.5 255q-6 45 -8 94t-2 113zM289 1247q0 14 6 27q29 59 71 103t113 44q41 0 76 -18.5 t63.5 -42t53 -42t43.5 -18.5q25 0 38 17.5t23 39t24.5 40t43.5 18.5q27 0 44 -18.5t17 -42.5q0 -16 -6 -29q-29 -59 -70.5 -103t-113.5 -44q-41 0 -76 18t-63.5 42t-53 42t-43.5 18q-25 0 -38 -17t-23 -38.5t-25.5 -39t-42.5 -17.5t-44 17.5t-17 43.5zM322 539 q0 -45 1 -94.5t7 -90.5q29 -199 268 -198q238 0 266 198q4 37 6 83t2 102q0 55 -2 101t-6 83q-28 199 -266 199q-240 0 -268 -199q-6 -41 -7 -90t-1 -94z" />
<glyph unicode="&#xf6;" horiz-adv-x="1193" d="M133 539q0 63 2 112t8 94q23 164 143 255.5t312 91.5q190 0 310 -91.5t143 -255.5q8 -49 9 -103t1 -103t-1 -103.5t-9 -103.5q-23 -164 -143 -255t-310 -91q-193 0 -312.5 91t-142.5 255q-6 45 -8 94t-2 113zM322 539q0 -45 1 -94.5t7 -90.5q29 -199 268 -198 q238 0 266 198q4 37 6 83t2 102q0 55 -2 101t-6 83q-28 199 -266 199q-240 0 -268 -199q-6 -41 -7 -90t-1 -94zM328 1288q0 43 29.5 73t72.5 30q41 0 70.5 -30t29.5 -73q0 -41 -29.5 -70.5t-70.5 -29.5q-43 0 -72.5 29.5t-29.5 70.5zM664 1288q0 43 29.5 73t70.5 30 q43 0 72.5 -30t29.5 -73q0 -41 -29.5 -70.5t-72.5 -29.5q-41 0 -70.5 29.5t-29.5 70.5z" />
<glyph unicode="&#xf7;" horiz-adv-x="1187" d="M61 539q0 35 24 58.5t62 23.5h893q39 0 62.5 -24t23.5 -58q0 -35 -23.5 -58.5t-62.5 -23.5h-893q-39 0 -62.5 23.5t-23.5 58.5zM487 186q0 47 31 79t76 32t75.5 -32t30.5 -79q0 -45 -30.5 -76.5t-75.5 -31.5t-76 31.5t-31 76.5zM487 891q0 45 31 76.5t76 31.5t75.5 -31.5 t30.5 -76.5q0 -47 -30.5 -79t-75.5 -32t-76 32t-31 79z" />
<glyph unicode="&#xf8;" horiz-adv-x="1193" d="M133 539q0 49 1 103t9 103q23 164 143 255.5t312 91.5q150 0 258 -60l59 90q20 27 52 27q16 0 32 -10q29 -18 29 -52q0 -18 -10 -34l-66 -95q81 -82 99 -213q6 -45 8 -94t2 -112t-2 -112.5t-8 -94.5q-23 -164 -143 -255t-310 -91q-152 0 -260 59l-59 -90q-20 -27 -52 -27 q-16 0 -32 11q-29 18 -29 51q0 18 10 35l66 94q-80 82 -99 213q-8 49 -9 103t-1 104zM322 539q0 -55 2 -101.5t6 -83.5q6 -45 20 -71l408 604q-66 35 -160 35q-240 0 -268 -199q-4 -37 -6 -83t-2 -101zM436 190q66 -35 162 -34q237 -1 266 198q6 41 7 90.5t1 94.5t-1 94 t-7 90q-6 45 -20 72z" />
<glyph unicode="&#xf9;" horiz-adv-x="1216" d="M154 471v537q0 35 27.5 56t66.5 21t66.5 -21.5t27.5 -55.5v-537q0 -106 14.5 -162.5t51.5 -89.5q70 -63 200 -63q135 0 201 63q35 33 50 89.5t15 162.5v537q0 35 27 56t68 21q39 0 66.5 -21.5t27.5 -55.5v-537q0 -123 -22.5 -213t-98.5 -160q-123 -112 -334 -112 t-336 112q-74 70 -96 160t-22 213zM383 1409q0 23 18 45q18 20 50 21q23 0 45 -19l204 -188q23 -18 23 -49q0 -27 -18 -45q-19 -21 -50 -21q-29 0 -45 16l-204 191q-23 18 -23 49z" />
<glyph unicode="&#xfa;" horiz-adv-x="1216" d="M154 471q0 -123 22.5 -213t95.5 -160q125 -112 336 -112t334 112q76 70 98.5 160t22.5 213v537q0 35 -27.5 56t-66.5 21q-41 0 -68 -21.5t-27 -55.5v-537q0 -106 -15 -162.5t-50 -89.5q-66 -63 -201 -63q-131 0 -200 63q-37 33 -51.5 89.5t-14.5 162.5v537q0 35 -27.5 56 t-66.5 21t-66.5 -21.5t-27.5 -55.5v-537zM494 1219q0 31 22 49l205 188q18 18 45 19q31 0 49 -21q18 -23 19 -45q0 -31 -23 -49l-205 -191q-16 -16 -45 -16q-31 0 -49 21q-18 18 -18 45z" />
<glyph unicode="&#xfb;" horiz-adv-x="1216" d="M154 471v537q0 35 27.5 56t66.5 21t66.5 -21.5t27.5 -55.5v-537q0 -106 14.5 -162.5t51.5 -89.5q70 -63 200 -63q135 0 201 63q35 33 50 89.5t15 162.5v537q0 35 27 56t68 21q39 0 66.5 -21.5t27.5 -55.5v-537q0 -123 -22.5 -213t-98.5 -160q-123 -112 -334 -112 t-336 112q-74 70 -96 160t-22 213zM356 1225q0 27 19 43l145 147q39 35 88 35q51 0 86 -35l148 -147q18 -16 18 -43q0 -25 -18 -43q-16 -19 -43 -19q-25 0 -43 19l-148 145l-147 -145q-18 -18 -43 -19q-27 0 -45 19q-16 20 -17 43z" />
<glyph unicode="&#xfc;" horiz-adv-x="1216" d="M154 471v537q0 35 27.5 56t66.5 21t66.5 -21.5t27.5 -55.5v-537q0 -106 14.5 -162.5t51.5 -89.5q70 -63 200 -63q135 0 201 63q35 33 50 89.5t15 162.5v537q0 35 27 56t68 21q39 0 66.5 -21.5t27.5 -55.5v-537q0 -123 -22.5 -213t-98.5 -160q-123 -112 -334 -112 t-336 112q-74 70 -96 160t-22 213zM340 1288q0 43 29.5 73t70.5 30t71 -30t30 -73q0 -41 -30 -70.5t-71 -29.5t-70.5 29.5t-29.5 70.5zM676 1288q0 43 29.5 73t70.5 30t71 -30t30 -73q0 -41 -30 -70.5t-71 -29.5t-70.5 29.5t-29.5 70.5z" />
<glyph unicode="&#xfd;" horiz-adv-x="1077" d="M61 1004q0 33 25 57t70 24q31 0 56.5 -15t37.5 -44l293 -690q14 -31 17 -39t7 -8t5 6t10 22l2 2l241 695q23 71 103 71q37 0 62.5 -22.5t25.5 -56.5q0 -18 -6 -33l-328 -942q-27 -76 -60.5 -147.5t-84 -128t-123 -91.5t-176.5 -37h-5h-2q-41 0 -65.5 22.5t-24.5 61.5v4v2 q0 35 21.5 56.5t68.5 25.5q47 2 83 13.5t68 42t60.5 85t59.5 144.5l6 16q-35 16 -70 49t-61 93v2l-307 723q-8 16 -9 37zM397 1219q0 29 21 49l207 188q18 18 45 19q29 0 49 -21q16 -23 16 -45q0 -31 -20 -49l-205 -191q-18 -16 -45 -16q-31 0 -49 21q-18 18 -19 45z" />
<glyph unicode="&#xfe;" horiz-adv-x="1234" d="M174 -309v1677q0 35 27.5 55.5t66.5 20.5t66.5 -20.5t27.5 -55.5v-336q72 27 145 43.5t140 16.5q186 0 304 -91.5t141 -255.5q6 -45 8 -94t2 -112t-2 -112.5t-8 -94.5q-23 -164 -140.5 -255t-304.5 -91q-68 0 -140.5 16t-144.5 43v-354q0 -35 -27.5 -56.5t-66.5 -21.5 t-66.5 21.5t-27.5 56.5zM362 209q70 -23 148 -38t129 -15q238 0 266 198q6 41 7 90.5t1 94.5t-1 94t-7 90q-29 199 -266 199q-51 0 -129 -15.5t-148 -38.5v-659z" />
<glyph unicode="&#xff;" horiz-adv-x="1077" d="M61 1004q0 -20 9 -37l307 -723v-2q27 -59 61.5 -92t69.5 -50l-6 -16q-31 -90 -59.5 -144.5t-60.5 -85t-67.5 -42t-83.5 -13.5q-47 -4 -68.5 -25.5t-21.5 -56.5v-2v-4q0 -39 24.5 -61.5t65.5 -22.5h2h5q104 2 176.5 37t123 91.5t84 128t60.5 147.5l328 942q6 14 6 33 q0 35 -25.5 57t-62.5 22q-80 0 -103 -71l-241 -695l-2 -2q-8 -16 -9.5 -22t-5.5 -6t-7 8t-17 39l-293 690q-12 29 -38 44t-56 15q-45 0 -70 -24.5t-25 -56.5zM264 1288q0 43 30 73t73 30q41 0 70.5 -30t29.5 -73q0 -41 -29.5 -70.5t-70.5 -29.5q-43 0 -73 29.5t-30 70.5z M600 1288q0 43 29.5 73t72.5 30q41 0 71 -30t30 -73q0 -41 -30 -70.5t-71 -29.5q-43 0 -72.5 29.5t-29.5 70.5z" />
<glyph unicode="&#x152;" horiz-adv-x="2140" d="M143 719q0 84 4.5 165t12.5 150q23 199 162 308.5t368 109.5q135 0 232.5 -40t160.5 -114q29 55 83.5 90t127.5 35h609q41 0 64.5 -25.5t23.5 -62.5t-23.5 -62.5t-64.5 -25.5h-603q-29 0 -45 -17.5t-16 -43.5v-369h616q41 0 65 -25.5t24 -62.5t-24 -62.5t-65 -25.5h-616 v-479h680q41 0 64.5 -25.5t23.5 -62.5t-23.5 -62.5t-64.5 -25.5h-694q-66 0 -109 36.5t-55 92.5q-129 -129 -371 -129q-229 0 -368.5 109.5t-161.5 307.5q-8 70 -12.5 151t-4.5 165zM336 719q0 -80 4 -156t10 -141q31 -260 340 -260t340 260q6 66 10 141.5t4 155.5t-4 155.5 t-10 141.5q-31 260 -340 260t-340 -260q-6 -66 -10 -141.5t-4 -155.5z" />
<glyph unicode="&#x153;" horiz-adv-x="1931" d="M133 539q0 49 1 103t9 103q23 164 143 255.5t312 91.5q127 0 220 -41t149 -119q57 78 150 119t222 41q190 0 310 -91.5t143 -255.5q6 -37 6 -67q0 -109 -56 -159t-159 -50h-520q2 -29 3 -58.5t5 -56.5q29 -199 268 -198q66 0 133.5 19t149.5 56q25 12 49 13q55 0 78 -49 q10 -25 10 -41q0 -27 -14 -47.5t-37 -30.5q-199 -90 -369 -90q-129 0 -222 41t-150 118q-55 -78 -148.5 -118.5t-220.5 -40.5q-193 0 -312.5 91t-142.5 255q-8 49 -9 103t-1 104zM322 539q0 -55 2 -101.5t6 -83.5q29 -199 268 -198q237 -1 266 198q6 41 7 90.5t1 94.5t-1 94 t-7 90q-29 199 -266 199q-240 0 -268 -199q-4 -37 -6 -83t-2 -101zM1065 639h502q20 0 30.5 8t10.5 37v17.5t-2 21.5q-29 199 -267 199q-239 0 -268 -199q-6 -37 -6 -84z" />
<glyph unicode="&#x178;" horiz-adv-x="1261" d="M31 1358q0 -27 14 -47l338 -496q33 -47 69.5 -82t82.5 -53v-608q0 -35 27.5 -57.5t68.5 -22.5t68.5 22.5t27.5 57.5v608q45 18 82 53t70 82l338 496q14 20 14 47q0 35 -25.5 61.5t-70.5 26.5q-35 0 -56.5 -14.5t-36.5 -34.5l-331 -486q-35 -49 -50.5 -61t-29.5 -12 t-29.5 12t-50.5 61l-330 486q-14 20 -36.5 34.5t-57.5 14.5q-45 0 -70.5 -26.5t-25.5 -61.5zM362 1651q0 41 30 70.5t71 29.5t70.5 -29.5t29.5 -70.5q0 -43 -29.5 -73t-70.5 -30t-71 30t-30 73zM698 1651q0 41 30 70.5t71 29.5t70.5 -29.5t29.5 -70.5q0 -43 -29.5 -73 t-70.5 -30t-71 30t-30 73z" />
<glyph unicode="&#x2c6;" horiz-adv-x="675" d="M86 1225q0 27 18 45l148 145q35 35 86 35t86 -35l147 -145q18 -18 19 -45q0 -23 -17 -43q-18 -19 -45 -19q-25 0 -43 19l-147 145l-148 -145q-18 -18 -43 -19q-27 0 -45 19q-16 20 -16 43z" />
<glyph unicode="&#x2dc;" horiz-adv-x="675" d="M29 1247q0 12 6 29q29 59 70.5 103t113.5 44q41 0 76 -19.5t64.5 -42t53 -42t42.5 -19.5q25 0 38 17.5t24 39t25.5 40t43.5 18.5q25 0 43 -18.5t18 -42.5q0 -16 -6 -29q-29 -59 -70.5 -103t-113.5 -44q-41 0 -76 19.5t-64.5 42t-53 41.5t-42.5 19q-25 0 -38 -18 t-24.5 -39.5t-26.5 -39t-42 -17.5q-25 0 -43 18.5t-18 42.5z" />
<glyph unicode="&#x2000;" horiz-adv-x="940" />
<glyph unicode="&#x2001;" horiz-adv-x="1880" />
<glyph unicode="&#x2002;" horiz-adv-x="940" />
<glyph unicode="&#x2003;" horiz-adv-x="1880" />
<glyph unicode="&#x2004;" horiz-adv-x="626" />
<glyph unicode="&#x2005;" horiz-adv-x="470" />
<glyph unicode="&#x2006;" horiz-adv-x="313" />
<glyph unicode="&#x2007;" horiz-adv-x="313" />
<glyph unicode="&#x2008;" horiz-adv-x="235" />
<glyph unicode="&#x2009;" horiz-adv-x="376" />
<glyph unicode="&#x200a;" horiz-adv-x="104" />
<glyph unicode="&#x2010;" horiz-adv-x="770" d="M41 539q0 29 21.5 50t50.5 21h524q29 0 50.5 -21.5t21.5 -49.5q0 -29 -21.5 -50.5t-50.5 -21.5h-524q-29 0 -50.5 21.5t-21.5 50.5z" />
<glyph unicode="&#x2011;" horiz-adv-x="770" d="M41 539q0 29 21.5 50t50.5 21h524q29 0 50.5 -21.5t21.5 -49.5q0 -29 -21.5 -50.5t-50.5 -21.5h-524q-29 0 -50.5 21.5t-21.5 50.5z" />
<glyph unicode="&#x2012;" horiz-adv-x="770" d="M41 539q0 29 21.5 50t50.5 21h524q29 0 50.5 -21.5t21.5 -49.5q0 -29 -21.5 -50.5t-50.5 -21.5h-524q-29 0 -50.5 21.5t-21.5 50.5z" />
<glyph unicode="&#x2013;" horiz-adv-x="1189" d="M41 539q0 29 21.5 50t50.5 21h944q29 0 50 -21.5t21 -49.5q0 -29 -21 -50.5t-50 -21.5h-944q-29 0 -50.5 21.5t-21.5 50.5z" />
<glyph unicode="&#x2014;" horiz-adv-x="2164" d="M41 539q0 29 21.5 50t50.5 21h1919q31 0 51 -21.5t20 -49.5q0 -29 -20 -50.5t-51 -21.5h-1919q-29 0 -50.5 21.5t-21.5 50.5z" />
<glyph unicode="&#x2018;" horiz-adv-x="362" d="M82 1085.5v18.5q0 88 26.5 181t81.5 188q20 37 64 36q18 0 33 -8q35 -16 35 -57q0 -20 -9 -37q-47 -92 -67.5 -164t-20.5 -137v-29l2 -6v-2q0 -29 -19.5 -48.5t-47.5 -19.5h-6h-2q-27 -2 -46.5 17.5t-21.5 48.5q-2 10 -2 18.5z" />
<glyph unicode="&#x2019;" horiz-adv-x="362" d="M41 1067q0 16 10 37q47 92 67.5 162.5t20.5 136.5q0 8 -1 15t-1 16v4v4q0 29 19.5 47t48.5 20h4h2q29 0 48.5 -18t21.5 -49v-37q0 -86 -27 -179t-80 -188q-23 -37 -65 -37q-14 0 -33 7q-35 18 -35 59z" />
<glyph unicode="&#x201a;" horiz-adv-x="331" d="M10 -184q0 14 10 39q47 90 68 161.5t21 137.5q0 8 -1.5 14t-1.5 14v6v2q0 29 19.5 48.5t48.5 21.5h4h2q29 0 48.5 -19.5t21.5 -47.5v-37q0 -180 -107 -367q-23 -39 -65 -39q-16 0 -33 8q-35 16 -35 58z" />
<glyph unicode="&#x201c;" horiz-adv-x="604" d="M82 1085.5v18.5q0 88 26.5 181t81.5 188q20 37 64 36q18 0 33 -8q35 -16 35 -57q0 -20 -9 -37q-47 -92 -67.5 -164t-20.5 -137v-29l2 -6v-2q0 -29 -19.5 -48.5t-47.5 -19.5h-6h-2q-27 -2 -46.5 17.5t-21.5 48.5q-2 10 -2 18.5zM324 1067v37q0 88 26.5 181t79.5 188 q23 37 66 36q16 0 32 -8q35 -16 35 -57q0 -23 -10 -37q-47 -92 -66.5 -164t-19.5 -137v-29v-6v-2q0 -29 -19.5 -48.5t-48.5 -19.5h-4h-2q-29 -2 -47 17.5t-22 48.5z" />
<glyph unicode="&#x201d;" horiz-adv-x="604" d="M41 1067q0 16 10 37q47 92 67.5 162.5t20.5 136.5q0 8 -1 15t-1 16v4q-2 31 18.5 50t49.5 21h4h2q29 0 48.5 -18t21.5 -49v-37q0 -86 -27 -179t-80 -188q-23 -37 -65 -37q-14 0 -33 7q-35 18 -35 59zM283 1067q0 20 8 37q47 92 67.5 162.5t20.5 136.5v31v4q-2 31 17.5 50 t47.5 21h7h2q29 0 47 -18t22 -49v-37q0 -86 -26.5 -179t-81.5 -188q-20 -37 -64 -37q-18 0 -33 7q-35 18 -34 59z" />
<glyph unicode="&#x201e;" horiz-adv-x="573" d="M10 -184q0 14 10 39q47 90 68 161.5t21 137.5q0 8 -1.5 14t-1.5 14v6q-2 31 18.5 50.5t49.5 21.5h4h2q29 0 48.5 -19.5t21.5 -47.5v-37q0 -180 -107 -367q-23 -39 -65 -39q-16 0 -33 8q-35 16 -35 58zM252 -184q0 20 8 39q47 90 67.5 161.5t20.5 137.5v28v6 q-2 31 17.5 50.5t48.5 21.5h6h2q29 0 47 -19.5t23 -47.5v-37q0 -88 -27 -180.5t-82 -186.5q-20 -39 -64 -39q-18 0 -32 8q-35 16 -35 58z" />
<glyph unicode="&#x2022;" horiz-adv-x="466" d="M82 543q0 63 44 107t107 44t107.5 -44t44.5 -107t-44 -107.5t-108 -44.5q-63 0 -107 44t-44 108z" />
<glyph unicode="&#x2026;" horiz-adv-x="1318" d="M41 96q0 53 29.5 81t74.5 28t74 -28t29 -81t-29 -81.5t-74 -28.5t-74.5 28.5t-29.5 81.5zM535 96q0 53 29.5 81t74.5 28t74.5 -28t29.5 -81t-29.5 -81.5t-74.5 -28.5t-74.5 28.5t-29.5 81.5zM1028 96q0 53 29.5 81t75.5 28q45 0 74.5 -28t29.5 -81t-29.5 -81.5 t-74.5 -28.5t-75 28.5t-30 81.5z" />
<glyph unicode="&#x202f;" horiz-adv-x="376" />
<glyph unicode="&#x2039;" horiz-adv-x="514" d="M61 539q0 23 7.5 44t17.5 40l233 368q23 35 62 35q18 0 37 -12q16 -10 25.5 -26.5t9.5 -33.5q0 -20 -13 -39l-231 -368q-4 -4 -4 -8t4 -9l231 -368q12 -18 13 -39q0 -16 -9.5 -32.5t-25.5 -27.5q-18 -12 -37 -12q-39 0 -62 35l-233 369q-10 18 -17.5 39.5t-7.5 44.5z" />
<glyph unicode="&#x203a;" horiz-adv-x="514" d="M61 123q0 18 11 39l233 368q2 2 2 9q0 6 -2 8l-233 368q-10 20 -11 39q0 39 33 60q18 12 39 12q39 0 62 -35l231 -368q27 -41 27 -84q0 -45 -27 -84l-231 -369q-23 -35 -62 -35q-20 0 -39 12q-33 20 -33 60z" />
<glyph unicode="&#x205f;" horiz-adv-x="470" />
<glyph unicode="&#x20ac;" horiz-adv-x="1292" d="M61 596q0 27 17.5 44t44.5 17h113v62v61h-113q-27 0 -44.5 18.5t-17.5 43.5q0 27 17.5 44t44.5 17h117q4 35 6 69t6 64q23 197 162 306.5t366 109.5q82 0 167 -14.5t145 -30.5q29 -8 48 -27.5t19 -52.5q0 -6 -1 -13t-3 -18q-8 -29 -28.5 -46t-55.5 -17q-14 0 -33 6 q-47 12 -119.5 26.5t-138.5 14.5q-96 0 -159.5 -24.5t-102.5 -62.5t-56.5 -84t-23.5 -91q-4 -27 -5 -55.5t-5 -59.5h506q27 0 44 -17.5t17 -43.5q0 -25 -17 -43.5t-44 -18.5h-510v-61v-62h448q27 0 44.5 -17t17.5 -44t-17.5 -44t-44.5 -17h-444q4 -31 5 -60t5 -55 q6 -45 23.5 -92t56.5 -85t102.5 -61.5t159.5 -23.5q66 0 138.5 13.5t119.5 25.5q18 6 35 6q63 0 80 -62q4 -6 4 -13v-13q0 -29 -15.5 -51.5t-49.5 -32.5q-59 -16 -144.5 -30.5t-167.5 -14.5q-227 0 -366.5 109.5t-161.5 305.5q-4 31 -6 65t-6 69h-117q-27 0 -44.5 17 t-17.5 44z" />
<glyph unicode="&#x2122;" horiz-adv-x="1626" d="M61 1368q0 29 19.5 49.5t50.5 20.5h498q33 0 52 -20.5t19 -49.5t-19 -48.5t-52 -19.5h-172v-540q0 -29 -21.5 -49.5t-54.5 -20.5t-55.5 20.5t-22.5 49.5v540h-172q-31 0 -50.5 19.5t-19.5 48.5zM756 756v557q0 59 35.5 95t95.5 36q51 0 86 -25.5t47 -64.5l102 -346h13 l104 346q10 39 45 64.5t86 25.5q59 0 96 -36t37 -95v-557q0 -29 -22.5 -47.5t-55.5 -18.5q-31 0 -53 18.5t-22 47.5v147l20 379h-14l-105 -340q-12 -39 -41.5 -64.5t-81.5 -25.5q-51 0 -80.5 25.5t-41.5 64.5l-105 340h-14l22 -379v-147q0 -29 -22.5 -47.5t-55.5 -18.5 t-54 18.5t-21 47.5z" />
<glyph unicode="&#x25fc;" horiz-adv-x="1085" d="M0 0v1085h1085v-1085h-1085z" />
</font>
</defs>
</svg>
